# Blender 4.4.0
# www.blender.org
mtllib black_van.mtl
o FurgoneCPU
v -0.112019 0.120462 -0.002831
v -0.112019 0.034245 -0.002747
v -0.112019 0.039337 0.119873
v -0.112019 0.122403 0.115196
v -0.112019 0.117455 -0.133278
v -0.112019 0.085738 -0.139153
v -0.116203 0.064907 -0.110962
v -0.112019 0.035813 -0.104492
v -0.118378 0.077766 -0.267456
v -0.112019 0.042361 -0.268631
v -0.112019 0.039517 -0.201820
v -0.112019 0.048250 -0.184196
v -0.117845 0.075802 -0.174217
v -0.116016 0.083734 -0.262123
v -0.112019 0.151522 -0.216087
v -0.108712 0.152682 -0.200272
v -0.088359 0.213194 -0.143143
v -0.089998 0.204971 -0.161476
v -0.106578 0.174429 -0.182617
v -0.093585 0.214270 -0.005150
v -0.093516 0.214859 0.108162
v -0.087345 0.194986 0.223839
v -0.088862 0.206146 0.213852
v -0.102213 0.121567 0.252914
v -0.097554 0.145159 0.248291
v -0.085829 0.181495 0.235481
v -0.114090 0.122503 -0.256104
v -0.116203 0.066753 0.128769
v -0.112019 0.085151 0.190353
v -0.116203 0.064323 0.207382
v -0.112019 0.086369 0.153404
v -0.100918 0.083961 0.262672
v -0.112019 0.040512 0.212669
v -0.112019 0.044623 0.253197
v -0.094030 0.063521 0.271523
v -0.099596 0.082787 0.270973
v -0.056212 0.029870 -0.003716
v -0.066107 0.032338 0.111511
v -0.112019 0.039337 0.119873
v -0.112019 0.034245 -0.002747
v -0.066107 0.091466 -0.137138
v -0.066107 0.065599 -0.104958
v -0.116203 0.064907 -0.110962
v -0.112019 0.085738 -0.139153
v -0.066107 0.031649 -0.096375
v -0.112019 0.035813 -0.104492
v -0.093693 0.077088 -0.280167
v -0.093693 0.039736 -0.278503
v -0.112019 0.042361 -0.268631
v -0.118378 0.077766 -0.267456
v -0.093693 0.039736 -0.278503
v -0.093693 0.036112 -0.203331
v -0.112019 0.039517 -0.201820
v -0.112019 0.042361 -0.268631
v -0.066107 0.047852 -0.185753
v -0.112019 0.048250 -0.184196
v -0.066107 0.079188 -0.177757
v -0.117845 0.075802 -0.174217
v -0.095070 0.083264 -0.272781
v -0.116016 0.083734 -0.262123
v -0.091907 0.156329 -0.207703
v -0.093693 0.153584 -0.224808
v -0.112019 0.151522 -0.216087
v -0.108712 0.152682 -0.200272
v -0.062258 0.218863 -0.150261
v -0.071757 0.210840 -0.172607
v -0.089998 0.204971 -0.161476
v -0.088359 0.213194 -0.143143
v -0.086735 0.179005 -0.193741
v -0.106578 0.174429 -0.182617
v -0.070667 0.220697 -0.006653
v -0.062258 0.218863 -0.150261
v -0.088359 0.213194 -0.143143
v -0.093585 0.214270 -0.005150
v -0.070920 0.221321 0.108925
v -0.093516 0.214859 0.108162
v -0.069074 0.202007 0.234703
v -0.070536 0.210821 0.220459
v -0.088862 0.206146 0.213852
v -0.087345 0.194986 0.223839
v -0.070536 0.210821 0.220459
v -0.088862 0.206146 0.213852
v -0.065598 0.147290 0.255821
v -0.067307 0.192797 0.240486
v -0.085829 0.181495 0.235481
v -0.097554 0.145159 0.248291
v -0.065598 0.121857 0.260315
v -0.102213 0.121567 0.252914
v -0.095764 0.126775 -0.265587
v -0.114090 0.122503 -0.256104
v -0.066107 0.069117 0.125816
v -0.116203 0.066753 0.128769
v -0.066107 0.088523 0.192101
v -0.066107 0.066137 0.212463
v -0.116203 0.064323 0.207382
v -0.112019 0.085151 0.190353
v -0.066107 0.089741 0.151466
v -0.112019 0.086369 0.153404
v -0.065598 0.084580 0.265999
v -0.100918 0.083961 0.262672
v -0.066107 0.036228 0.218552
v -0.112019 0.040512 0.212669
v -0.090384 0.042136 0.261559
v -0.112019 0.044623 0.253197
v -0.090384 0.042136 0.261559
v -0.065598 0.060791 0.273460
v -0.094030 0.063521 0.271523
v -0.112019 0.044623 0.253197
v -0.065598 0.078908 0.273911
v -0.099596 0.082787 0.270973
v 0.112038 0.120462 -0.002831
v 0.112038 0.039337 0.119873
v 0.112038 0.034245 -0.002747
v 0.112038 0.122403 0.115196
v 0.112038 0.117455 -0.133278
v 0.116222 0.064907 -0.110962
v 0.112038 0.085738 -0.139153
v 0.112038 0.035813 -0.104492
v 0.118397 0.077766 -0.267456
v 0.112038 0.039517 -0.201820
v 0.112038 0.042361 -0.268631
v 0.112038 0.048250 -0.184196
v 0.117864 0.075802 -0.174217
v 0.116035 0.083734 -0.262123
v 0.112038 0.151522 -0.216087
v 0.108731 0.152682 -0.200272
v 0.088378 0.213194 -0.143143
v 0.106597 0.174429 -0.182617
v 0.090017 0.204971 -0.161476
v 0.093604 0.214270 -0.005150
v 0.093535 0.214859 0.108162
v 0.087364 0.194986 0.223839
v 0.088881 0.206146 0.213852
v 0.102232 0.121567 0.252914
v 0.097573 0.145159 0.248291
v 0.085848 0.181495 0.235481
v 0.114109 0.122503 -0.256104
v 0.116222 0.066754 0.128769
v 0.112038 0.085151 0.190353
v 0.116222 0.064323 0.207382
v 0.112038 0.086369 0.153404
v 0.100937 0.083961 0.262672
v 0.112038 0.044624 0.253197
v 0.112038 0.040512 0.212669
v 0.099615 0.082787 0.270973
v 0.094049 0.063521 0.271523
v 0.056231 0.029870 -0.003716
v 0.112038 0.039337 0.119873
v 0.066126 0.032338 0.111511
v 0.112038 0.034245 -0.002747
v 0.066126 0.091466 -0.137138
v 0.116222 0.064907 -0.110962
v 0.066126 0.065599 -0.104958
v 0.112038 0.085738 -0.139153
v 0.112038 0.035813 -0.104492
v 0.066126 0.031649 -0.096375
v 0.093712 0.077088 -0.280167
v 0.112038 0.042361 -0.268631
v 0.093712 0.039736 -0.278503
v 0.118397 0.077766 -0.267456
v 0.093712 0.039736 -0.278503
v 0.112038 0.039517 -0.201820
v 0.093712 0.036112 -0.203331
v 0.112038 0.042361 -0.268631
v 0.112038 0.048250 -0.184196
v 0.066126 0.047852 -0.185753
v 0.117864 0.075802 -0.174217
v 0.066126 0.079188 -0.177757
v 0.095089 0.083264 -0.272781
v 0.116035 0.083734 -0.262123
v 0.091926 0.156329 -0.207703
v 0.112038 0.151522 -0.216087
v 0.093712 0.153584 -0.224808
v 0.108731 0.152682 -0.200272
v 0.062277 0.218863 -0.150261
v 0.090017 0.204971 -0.161476
v 0.071776 0.210840 -0.172607
v 0.088378 0.213194 -0.143143
v 0.106597 0.174429 -0.182617
v 0.086754 0.179005 -0.193741
v 0.070686 0.220697 -0.006653
v 0.088378 0.213194 -0.143143
v 0.062277 0.218863 -0.150261
v 0.093604 0.214270 -0.005150
v 0.070939 0.221321 0.108925
v 0.093535 0.214859 0.108162
v 0.069093 0.202007 0.234703
v 0.088881 0.206146 0.213852
v 0.070555 0.210821 0.220459
v 0.087364 0.194986 0.223839
v 0.070555 0.210821 0.220459
v 0.088881 0.206146 0.213852
v 0.065617 0.147290 0.255821
v 0.085848 0.181495 0.235481
v 0.067326 0.192797 0.240486
v 0.097573 0.145159 0.248291
v 0.065617 0.121857 0.260315
v 0.102232 0.121567 0.252914
v 0.114109 0.122503 -0.256104
v 0.095783 0.126775 -0.265587
v 0.116222 0.066754 0.128769
v 0.066126 0.069117 0.125816
v 0.066126 0.088523 0.192101
v 0.116222 0.064323 0.207382
v 0.066126 0.066137 0.212463
v 0.112038 0.085151 0.190353
v 0.112038 0.086369 0.153404
v 0.066126 0.089741 0.151466
v 0.065617 0.084580 0.265999
v 0.100937 0.083961 0.262672
v 0.112038 0.040512 0.212669
v 0.066126 0.036228 0.218552
v 0.112038 0.044624 0.253197
v 0.090403 0.042136 0.261559
v 0.090403 0.042136 0.261559
v 0.094049 0.063521 0.271523
v 0.065617 0.060791 0.273460
v 0.112038 0.044624 0.253197
v 0.099615 0.082787 0.270973
v 0.065617 0.078908 0.273911
v -0.093693 0.036112 -0.203331
v 0.093712 0.036112 -0.203331
v 0.066126 0.036228 0.218552
v -0.066107 0.036228 0.218552
v -0.066107 0.032338 0.111511
v 0.066126 0.032338 0.111511
v 0.066126 0.031649 -0.096375
v -0.066107 0.031649 -0.096375
v -0.066107 0.047852 -0.185753
v 0.066126 0.031649 -0.096375
v -0.066107 0.047852 -0.185753
v 0.066126 0.047852 -0.185753
v -0.079396 0.040326 0.167641
v -0.079396 0.067549 0.194862
v -0.079396 0.040326 0.206139
v -0.079396 0.078826 0.167641
v -0.079396 0.067549 0.140419
v -0.079396 0.040326 0.129135
v -0.079396 0.013102 0.140419
v -0.079396 0.001826 0.167641
v -0.079396 0.013102 0.140419
v -0.079396 0.013102 0.194862
v -0.079396 0.013102 0.194862
v -0.116048 0.067549 0.194862
v -0.116048 0.040326 0.206139
v -0.116048 0.078826 0.167641
v -0.116048 0.067549 0.140419
v -0.116048 0.040326 0.129135
v -0.079396 0.040326 0.129135
v -0.116048 0.013102 0.140419
v -0.116048 0.040326 0.129135
v -0.116048 0.001826 0.167641
v -0.116048 0.013102 0.194862
v -0.116048 0.040326 0.206139
v -0.079396 0.040326 0.206139
v -0.116048 0.040326 0.167641
v -0.116048 0.040326 0.206139
v -0.116048 0.067549 0.194862
v -0.116048 0.078826 0.167641
v -0.116048 0.067549 0.140419
v -0.116048 0.040326 0.129135
v -0.116048 0.013102 0.140419
v -0.116048 0.001826 0.167641
v -0.116048 0.013102 0.194862
v 0.079007 0.040326 0.167641
v 0.079007 0.040326 0.206139
v 0.079007 0.067549 0.194862
v 0.079007 0.078826 0.167641
v 0.079007 0.067549 0.140419
v 0.079007 0.040326 0.129135
v 0.079007 0.013102 0.140419
v 0.079007 0.013102 0.140419
v 0.079007 0.001826 0.167641
v 0.079007 0.013102 0.194862
v 0.079007 0.013102 0.194862
v 0.115659 0.040326 0.206139
v 0.115659 0.067549 0.194862
v 0.115659 0.078826 0.167641
v 0.115659 0.067549 0.140419
v 0.115659 0.040326 0.129135
v 0.079007 0.040326 0.129135
v 0.115659 0.040326 0.129135
v 0.115659 0.013102 0.140419
v 0.115659 0.001826 0.167641
v 0.115659 0.013102 0.194862
v 0.115659 0.040326 0.206139
v 0.079007 0.040326 0.206139
v 0.115659 0.040326 0.167641
v 0.115659 0.067549 0.194862
v 0.115659 0.040326 0.206139
v 0.115659 0.078826 0.167641
v 0.115659 0.067549 0.140419
v 0.115659 0.040326 0.129135
v 0.115659 0.013102 0.140419
v 0.115659 0.001826 0.167641
v 0.115659 0.013102 0.194862
v 0.079007 0.040326 -0.146988
v 0.079007 0.040326 -0.108498
v 0.079007 0.067549 -0.119766
v 0.079007 0.078826 -0.146988
v 0.079007 0.067549 -0.174217
v 0.079007 0.040326 -0.185486
v 0.079007 0.013102 -0.174217
v 0.079007 0.013102 -0.174217
v 0.079007 0.001826 -0.146988
v 0.079007 0.013102 -0.119766
v 0.079007 0.013102 -0.119766
v 0.115659 0.040326 -0.108498
v 0.115659 0.067549 -0.119766
v 0.115659 0.078826 -0.146988
v 0.115659 0.067549 -0.174217
v 0.115659 0.040326 -0.185486
v 0.079007 0.040326 -0.185486
v 0.115659 0.040326 -0.185486
v 0.115659 0.013102 -0.174217
v 0.115659 0.001826 -0.146988
v 0.115659 0.013102 -0.119766
v 0.115659 0.040326 -0.108498
v 0.079007 0.040326 -0.108498
v 0.115659 0.040326 -0.146988
v 0.115659 0.067549 -0.119766
v 0.115659 0.040326 -0.108498
v 0.115659 0.078826 -0.146988
v 0.115659 0.067549 -0.174217
v 0.115659 0.040326 -0.185486
v 0.115659 0.013102 -0.174217
v 0.115659 0.001826 -0.146988
v 0.115659 0.013102 -0.119766
v -0.079396 0.040326 -0.146988
v -0.079396 0.067549 -0.119766
v -0.079396 0.040326 -0.108498
v -0.079396 0.078826 -0.146988
v -0.079396 0.067549 -0.174217
v -0.079396 0.040326 -0.185486
v -0.079396 0.013102 -0.174217
v -0.079396 0.001826 -0.146988
v -0.079396 0.013102 -0.174217
v -0.079396 0.013102 -0.119766
v -0.079396 0.013102 -0.119766
v -0.116048 0.067549 -0.119766
v -0.116048 0.040326 -0.108498
v -0.116048 0.078826 -0.146988
v -0.116048 0.067549 -0.174217
v -0.116048 0.040326 -0.185486
v -0.079396 0.040326 -0.185486
v -0.116048 0.013102 -0.174217
v -0.116048 0.040326 -0.185486
v -0.116048 0.001826 -0.146988
v -0.116048 0.013102 -0.119766
v -0.116048 0.040326 -0.108498
v -0.079396 0.040326 -0.108498
v -0.116048 0.040326 -0.146988
v -0.116048 0.040326 -0.108498
v -0.116048 0.067549 -0.119766
v -0.116048 0.078826 -0.146988
v -0.116048 0.067549 -0.174217
v -0.116048 0.040326 -0.185486
v -0.116048 0.013102 -0.174217
v -0.116048 0.001826 -0.146988
v -0.116048 0.013102 -0.119766
vn -0.9948 0.1016 -0.0072
vn -1.0000 -0.0019 0.0064
vn -0.9971 -0.0043 -0.0763
vn -0.9928 0.1173 0.0235
vn -0.9913 0.1276 0.0325
vn -0.9997 -0.0041 0.0220
vn -0.9994 0.0267 0.0219
vn -0.9897 -0.1428 -0.0022
vn -0.9998 0.0198 0.0051
vn -0.9843 -0.1765 -0.0075
vn -0.9938 -0.1057 0.0347
vn -0.9857 -0.1676 0.0159
vn -0.9996 0.0194 0.0186
vn -0.9701 0.2423 0.0129
vn -0.9924 0.1136 0.0465
vn -0.9507 0.2912 0.1062
vn -0.9574 0.2878 0.0219
vn -0.8067 0.5627 -0.1803
vn -0.9741 0.2088 0.0866
vn -0.9810 0.1930 -0.0206
vn -0.9803 0.1943 0.0346
vn -0.9721 0.1896 0.1381
vn -0.9940 -0.1036 0.0352
vn -0.9819 0.1499 0.1157
vn -0.9789 0.2043 0.0077
vn -0.6877 0.4285 0.5861
vn -0.9987 0.0469 0.0177
vn -0.9718 0.0157 -0.2354
vn -0.9715 0.2364 0.0147
vn -0.9914 0.0909 0.0941
vn -0.9923 0.1006 0.0725
vn -0.9651 0.1528 0.2125
vn -0.9854 -0.1693 0.0172
vn -0.9604 0.0872 0.2646
vn -0.6191 -0.1569 0.7695
vn -0.8973 0.0909 0.4320
vn -0.0405 -0.9992 0.0059
vn -0.3127 -0.8957 0.3161
vn 0.0262 -0.7230 0.6903
vn -0.0792 -0.9967 0.0149
vn -0.5708 -0.8068 -0.1526
vn -0.5973 -0.4207 -0.6828
vn 0.1207 -0.5426 -0.8313
vn 0.1202 -0.9799 -0.1592
vn -0.2668 -0.8971 -0.3521
vn 0.0458 -0.7041 -0.7086
vn -0.2036 0.3657 -0.9082
vn -0.2028 -0.4904 -0.8476
vn -0.4705 -0.0445 -0.8813
vn -0.4135 0.3874 -0.8240
vn -0.1687 -0.9847 -0.0431
vn -0.0865 -0.9386 0.3339
vn -0.1588 -0.9623 0.2210
vn -0.1638 -0.9856 -0.0420
vn -0.2973 -0.6566 0.6932
vn -0.0087 -0.6184 0.7858
vn -0.5732 -0.5702 0.5884
vn 0.0750 -0.7254 0.6842
vn -0.2142 0.4957 -0.8417
vn -0.4065 0.4342 -0.8039
vn -0.1858 0.8592 -0.4767
vn -0.1493 0.9130 -0.3797
vn -0.2705 0.9203 -0.2826
vn -0.3858 0.8225 -0.4178
vn -0.1457 0.9393 -0.3107
vn -0.2321 0.8054 -0.5454
vn -0.4467 0.7956 -0.4093
vn -0.2923 0.8821 -0.3695
vn -0.2618 0.5909 -0.7631
vn -0.4997 0.6066 -0.6183
vn -0.1374 0.9905 -0.0109
vn -0.0958 0.9952 -0.0183
vn -0.2236 0.9744 -0.0246
vn -0.2710 0.9625 -0.0114
vn -0.1389 0.9893 0.0444
vn -0.2760 0.9602 0.0418
vn -0.2777 0.6380 0.7182
vn -0.2136 0.8208 0.5298
vn -0.5044 0.6193 0.6017
vn -0.5558 0.4907 0.6711
vn -0.1240 0.9879 0.0934
vn -0.2769 0.9566 0.0911
vn -0.1311 0.2581 0.9572
vn -0.2418 0.4190 0.8752
vn -0.4143 0.4049 0.8151
vn -0.2224 0.2840 0.9327
vn -0.1047 0.1669 0.9804
vn -0.1710 0.2104 0.9625
vn -0.2392 0.5279 -0.8149
vn -0.4764 0.4982 -0.7244
vn -0.6239 -0.4639 0.6290
vn 0.0917 -0.5784 0.8106
vn -0.5948 -0.7278 -0.3412
vn -0.6117 -0.3563 -0.7063
vn 0.0984 -0.4420 -0.8916
vn 0.0817 -0.8874 -0.4537
vn -0.6052 -0.7540 0.2554
vn 0.0793 -0.9436 0.3215
vn -0.0581 0.5368 0.8417
vn -0.0240 0.6761 0.7364
vn -0.3543 -0.8972 -0.2637
vn 0.0180 -0.7353 -0.6775
vn -0.0847 -0.9925 0.0885
vn -0.1216 -0.9895 0.0787
vn -0.2042 -0.4686 0.8595
vn -0.0334 -0.2816 0.9589
vn -0.1432 -0.2349 0.9614
vn -0.3670 -0.4435 0.8177
vn -0.0388 0.4420 0.8962
vn 0.0427 0.7890 0.6129
vn 0.9948 0.1016 -0.0072
vn 0.9971 -0.0043 -0.0763
vn 1.0000 -0.0019 0.0064
vn 0.9928 0.1173 0.0235
vn 0.9913 0.1276 0.0325
vn 0.9994 0.0267 0.0219
vn 0.9997 -0.0041 0.0220
vn 0.9897 -0.1428 -0.0022
vn 0.9998 0.0198 0.0051
vn 0.9938 -0.1057 0.0347
vn 0.9843 -0.1765 -0.0075
vn 0.9857 -0.1676 0.0159
vn 0.9996 0.0194 0.0186
vn 0.9701 0.2423 0.0129
vn 0.9924 0.1136 0.0465
vn 0.9507 0.2912 0.1062
vn 0.9574 0.2878 0.0219
vn 0.9741 0.2088 0.0866
vn 0.8067 0.5627 -0.1803
vn 0.9810 0.1930 -0.0206
vn 0.9803 0.1943 0.0346
vn 0.9721 0.1896 0.1381
vn 0.9940 -0.1036 0.0352
vn 0.9819 0.1499 0.1157
vn 0.9789 0.2043 0.0077
vn 0.6877 0.4285 0.5861
vn 0.9987 0.0469 0.0177
vn 0.9718 0.0157 -0.2354
vn 0.9715 0.2364 0.0147
vn 0.9914 0.0909 0.0941
vn 0.9923 0.1006 0.0725
vn 0.9651 0.1528 0.2125
vn 0.9604 0.0872 0.2646
vn 0.9854 -0.1693 0.0172
vn 0.8973 0.0909 0.4320
vn 0.6191 -0.1569 0.7695
vn 0.0405 -0.9992 0.0059
vn -0.0262 -0.7230 0.6903
vn 0.3127 -0.8957 0.3161
vn 0.0792 -0.9967 0.0149
vn 0.5708 -0.8068 -0.1526
vn -0.1207 -0.5426 -0.8313
vn 0.5973 -0.4207 -0.6828
vn -0.1202 -0.9799 -0.1592
vn -0.0458 -0.7041 -0.7086
vn 0.2668 -0.8971 -0.3521
vn 0.2036 0.3657 -0.9082
vn 0.4705 -0.0445 -0.8813
vn 0.2028 -0.4904 -0.8476
vn 0.4135 0.3874 -0.8240
vn 0.1687 -0.9847 -0.0431
vn 0.1588 -0.9623 0.2210
vn 0.0865 -0.9386 0.3339
vn 0.1638 -0.9856 -0.0420
vn 0.0087 -0.6184 0.7858
vn 0.2973 -0.6566 0.6932
vn -0.0750 -0.7254 0.6842
vn 0.5732 -0.5702 0.5884
vn 0.2142 0.4957 -0.8417
vn 0.4065 0.4342 -0.8039
vn 0.1858 0.8592 -0.4767
vn 0.2705 0.9203 -0.2826
vn 0.1493 0.9130 -0.3797
vn 0.3858 0.8225 -0.4178
vn 0.1457 0.9393 -0.3107
vn 0.4467 0.7956 -0.4093
vn 0.2321 0.8054 -0.5454
vn 0.2923 0.8821 -0.3695
vn 0.4997 0.6066 -0.6183
vn 0.2618 0.5909 -0.7631
vn 0.1374 0.9905 -0.0109
vn 0.2236 0.9744 -0.0246
vn 0.0958 0.9952 -0.0183
vn 0.2710 0.9625 -0.0114
vn 0.1389 0.9893 0.0444
vn 0.2760 0.9602 0.0418
vn 0.2777 0.6380 0.7182
vn 0.5044 0.6193 0.6017
vn 0.2136 0.8208 0.5298
vn 0.5558 0.4907 0.6711
vn 0.1240 0.9879 0.0934
vn 0.2769 0.9566 0.0911
vn 0.1311 0.2581 0.9572
vn 0.4143 0.4049 0.8151
vn 0.2418 0.4190 0.8752
vn 0.2224 0.2840 0.9327
vn 0.1047 0.1669 0.9804
vn 0.1710 0.2104 0.9625
vn 0.4764 0.4982 -0.7244
vn 0.2392 0.5280 -0.8149
vn -0.0917 -0.5784 0.8106
vn 0.6239 -0.4639 0.6289
vn 0.5948 -0.7278 -0.3412
vn -0.0984 -0.4420 -0.8916
vn 0.6117 -0.3563 -0.7063
vn -0.0817 -0.8874 -0.4537
vn -0.0793 -0.9436 0.3215
vn 0.6052 -0.7540 0.2554
vn 0.0581 0.5368 0.8417
vn 0.0240 0.6761 0.7364
vn -0.0180 -0.7354 -0.6774
vn 0.3543 -0.8971 -0.2637
vn 0.1216 -0.9895 0.0787
vn 0.0848 -0.9925 0.0885
vn 0.2042 -0.4686 0.8595
vn 0.1432 -0.2349 0.9614
vn 0.0334 -0.2816 0.9589
vn 0.3670 -0.4435 0.8177
vn -0.0427 0.7890 0.6129
vn 0.0388 0.4420 0.8962
vn -0.0000 -0.9988 -0.0482
vn -0.0000 -0.9993 0.0363
vn -0.0000 -0.9840 -0.1784
vn 1.0000 -0.0000 -0.0000
vn 0.6302 0.5490 0.5490
vn 0.8320 0.2123 0.5125
vn 0.6302 0.7764 -0.0000
vn 0.6303 0.5490 -0.5489
vn 0.8320 0.2124 -0.5125
vn 0.6302 -0.7764 -0.0000
vn 0.3761 -0.6553 -0.6551
vn 0.3761 -0.6552 0.6552
vn -0.0000 0.7071 0.7071
vn -0.0000 0.3827 0.9239
vn -0.0000 1.0000 -0.0000
vn -0.0000 0.7072 -0.7070
vn -0.0000 0.3829 -0.9238
vn -0.0000 -0.3829 -0.9238
vn -0.0000 -0.7072 -0.7070
vn -0.0000 -1.0000 -0.0000
vn -0.0000 -0.7071 0.7071
vn -0.0000 -0.3827 0.9239
vn -1.0000 -0.0000 -0.0000
vn -0.8320 0.2123 0.5125
vn -0.6302 0.5490 0.5490
vn -0.6302 0.7764 -0.0000
vn -0.6303 0.5490 -0.5489
vn -0.8320 0.2124 -0.5125
vn -0.3761 -0.6553 -0.6551
vn -0.6302 -0.7764 -0.0000
vn -0.3761 -0.6552 0.6552
vn -0.8321 0.2121 0.5125
vn -0.6302 0.5489 0.5491
vn -0.6302 0.5490 -0.5491
vn -0.8321 0.2121 -0.5125
vn -0.3760 -0.6552 -0.6553
vn -0.3761 -0.6551 0.6553
vn -0.0000 0.3825 0.9240
vn -0.0000 0.7070 0.7072
vn -0.0000 1.0000 0.0001
vn -0.0000 0.7070 -0.7072
vn -0.0000 0.3825 -0.9240
vn -0.0000 -0.3825 -0.9240
vn -0.0000 -0.7070 -0.7072
vn -0.0000 -0.7070 0.7072
vn -0.0000 -0.3825 0.9240
vn 0.6302 0.5489 0.5491
vn 0.8321 0.2121 0.5125
vn 0.6302 0.5490 -0.5491
vn 0.8321 0.2121 -0.5125
vn 0.3760 -0.6552 -0.6553
vn 0.3761 -0.6551 0.6553
vt 0.493117 0.256801
vt 0.493272 0.075982
vt 0.711337 0.086663
vt 0.703021 0.260870
vt 0.261148 0.250495
vt 0.250703 0.183977
vt 0.300840 0.140288
vt 0.312330 0.079272
vt 0.022537 0.167257
vt 0.020448 0.093004
vt 0.139259 0.087040
vt 0.170605 0.105356
vt 0.188336 0.163138
vt 0.032022 0.179773
vt 0.113871 0.321941
vt 0.142012 0.324374
vt 0.243607 0.451282
vt 0.211001 0.434036
vt 0.173408 0.369982
vt 0.488995 0.453539
vt 0.690510 0.454772
vt 0.896218 0.413095
vt 0.878461 0.436500
vt 0.947940 0.259118
vt 0.939702 0.308596
vt 0.916940 0.384800
vt 0.042724 0.261081
vt 0.727159 0.144161
vt 0.836680 0.182745
vt 0.866971 0.139063
vt 0.770967 0.185298
vt 0.965292 0.180250
vt 0.876372 0.089126
vt 0.948444 0.097749
vt 0.981026 0.137382
vt 0.980041 0.177786
vt 0.528085 0.947281
vt 0.596041 0.952346
vt 0.600975 0.975847
vt 0.528654 0.975847
vt 0.449396 0.952346
vt 0.468374 0.952346
vt 0.464834 0.977988
vt 0.448206 0.975847
vt 0.473436 0.952346
vt 0.468645 0.975847
vt 0.345043 0.564489
vt 0.345042 0.488085
vt 0.373976 0.493455
vt 0.384015 0.565877
vt 0.366017 0.966466
vt 0.410355 0.966466
vt 0.411246 0.975847
vt 0.371843 0.975847
vt 0.420720 0.952346
vt 0.421642 0.975847
vt 0.425439 0.952346
vt 0.427522 0.978828
vt 0.347216 0.577124
vt 0.380286 0.578085
vt 0.342222 0.726579
vt 0.345043 0.720965
vt 0.373976 0.716746
vt 0.368754 0.719120
vt 0.295413 0.854494
vt 0.310409 0.838083
vt 0.339209 0.826078
vt 0.336621 0.842898
vt 0.334057 0.772963
vt 0.365384 0.763603
vt 0.954996 0.768567
vt 0.945496 0.947993
vt 0.974982 0.939105
vt 0.980886 0.766696
vt 0.955281 0.624154
vt 0.980808 0.625113
vt 0.681937 0.812736
vt 0.684192 0.830798
vt 0.712465 0.821217
vt 0.710124 0.798349
vt 0.954847 0.484797
vt 0.975550 0.493059
vt 0.676574 0.700608
vt 0.679210 0.793863
vt 0.707786 0.770701
vt 0.725875 0.696241
vt 0.676574 0.648489
vt 0.733064 0.647895
vt 0.348312 0.666127
vt 0.377245 0.657387
vt 0.604481 0.952346
vt 0.606222 0.977988
vt 0.643574 0.952346
vt 0.655581 0.952346
vt 0.652591 0.977988
vt 0.642545 0.975847
vt 0.619608 0.952346
vt 0.620751 0.975847
vt 0.676574 0.572100
vt 0.731066 0.570832
vt 0.659180 0.952346
vt 0.655708 0.975847
vt 0.684539 0.964772
vt 0.679611 0.975847
vt 0.714813 0.485123
vt 0.676574 0.523352
vt 0.720438 0.528946
vt 0.748192 0.490220
vt 0.676574 0.560477
vt 0.729026 0.568425
vt 0.493272 0.075983
vt 0.866971 0.139064
vt 0.770967 0.185299
vt 0.528085 0.889724
vt 0.600975 0.861158
vt 0.596041 0.884659
vt 0.528654 0.861158
vt 0.449396 0.884659
vt 0.464834 0.859016
vt 0.468374 0.884659
vt 0.448206 0.861158
vt 0.468645 0.861158
vt 0.473436 0.884659
vt 0.049166 0.564489
vt 0.020232 0.493455
vt 0.049166 0.488085
vt 0.010193 0.565877
vt 0.366017 0.870539
vt 0.411246 0.861158
vt 0.410355 0.870539
vt 0.371843 0.861158
vt 0.421642 0.861158
vt 0.420720 0.884659
vt 0.427522 0.858176
vt 0.425439 0.884659
vt 0.046993 0.577124
vt 0.013923 0.578085
vt 0.051986 0.726579
vt 0.020232 0.716747
vt 0.049166 0.720965
vt 0.025454 0.719120
vt 0.098796 0.854494
vt 0.055000 0.826078
vt 0.083799 0.838083
vt 0.057588 0.842898
vt 0.028824 0.763603
vt 0.060151 0.772963
vt 0.795309 0.768567
vt 0.775323 0.939105
vt 0.804809 0.947993
vt 0.769419 0.766696
vt 0.795024 0.624154
vt 0.769497 0.625113
vt 0.468773 0.812736
vt 0.438244 0.821218
vt 0.466518 0.830798
vt 0.440585 0.798349
vt 0.795458 0.484798
vt 0.774755 0.493059
vt 0.474135 0.700608
vt 0.442923 0.770701
vt 0.471500 0.793863
vt 0.424834 0.696241
vt 0.474135 0.648489
vt 0.417646 0.647895
vt 0.016963 0.657387
vt 0.045896 0.666127
vt 0.606222 0.859016
vt 0.604481 0.884659
vt 0.643574 0.884659
vt 0.652591 0.859016
vt 0.655581 0.884659
vt 0.642545 0.861158
vt 0.620751 0.861158
vt 0.619608 0.884659
vt 0.474135 0.572100
vt 0.419644 0.570832
vt 0.655708 0.861158
vt 0.659180 0.884659
vt 0.679611 0.861158
vt 0.684539 0.872233
vt 0.435896 0.485123
vt 0.430272 0.528946
vt 0.474135 0.523352
vt 0.402517 0.490220
vt 0.421684 0.568425
vt 0.474135 0.560477
vt 0.345042 0.480673
vt 0.049166 0.480673
vt 0.629148 0.959148
vt 0.645204 0.959148
vt 0.651855 0.959148
vt 0.613092 0.959148
vt 0.606441 0.959148
vt 0.645204 0.977909
vt 0.651855 0.977909
vt 0.629148 0.977909
vt 0.613092 0.977909
vt 0.606441 0.977909
vt 0.796287 0.088736
vt 0.864754 0.088736
vt 0.844700 0.145830
vt 0.796287 0.169479
vt 0.747874 0.145830
vt 0.727821 0.088736
vt 0.747874 0.031641
vt 0.796287 0.007992
vt 0.844700 0.031641
vt 0.629148 0.878066
vt 0.651855 0.878066
vt 0.645204 0.878066
vt 0.613092 0.878066
vt 0.606441 0.878066
vt 0.651855 0.859305
vt 0.645204 0.859305
vt 0.629148 0.859305
vt 0.613092 0.859305
vt 0.606441 0.859305
vt 0.443582 0.878066
vt 0.466289 0.878066
vt 0.459638 0.878066
vt 0.427526 0.878066
vt 0.420875 0.878066
vt 0.466289 0.859305
vt 0.459638 0.859305
vt 0.443582 0.859305
vt 0.427526 0.859305
vt 0.420875 0.859305
vt 0.236760 0.088736
vt 0.285174 0.145830
vt 0.305227 0.088736
vt 0.236760 0.169479
vt 0.188347 0.145830
vt 0.168294 0.088736
vt 0.188347 0.031641
vt 0.236760 0.007992
vt 0.285174 0.031641
vt 0.443582 0.959148
vt 0.459638 0.959148
vt 0.466289 0.959148
vt 0.427526 0.959148
vt 0.420875 0.959148
vt 0.459638 0.977909
vt 0.466289 0.977909
vt 0.443582 0.977909
vt 0.427526 0.977909
vt 0.420875 0.977909
s 1
usemtl FurgoneCPU
f 1/1/1 2/2/2 3/3/3
f 1/1/1 3/3/3 4/4/4
f 2/2/2 1/1/1 5/5/5
f 5/5/5 6/6/6 7/7/7
f 7/7/7 8/8/8 2/2/2
f 5/5/5 7/7/7 2/2/2
f 9/9/9 10/10/10 11/11/11
f 9/9/9 11/11/11 12/12/12
f 9/9/9 12/12/12 13/13/13
f 14/14/14 9/9/9 13/13/13
f 13/13/13 6/6/6 5/5/5
f 14/14/14 13/13/13 5/5/5
f 15/15/15 5/5/5 16/16/16
f 17/17/17 18/18/18 19/19/19
f 19/19/19 16/16/16 5/5/5
f 19/19/19 5/5/5 17/17/17
f 5/5/5 1/1/1 17/17/17
f 17/17/17 1/1/1 20/20/20
f 20/20/20 1/1/1 4/4/4
f 20/20/20 4/4/4 21/21/21
f 22/22/22 23/23/23 21/21/21
f 21/21/21 4/4/4 24/24/24
f 25/25/25 26/26/26 22/22/22
f 22/22/22 21/21/21 24/24/24
f 24/24/24 25/25/25 22/22/22
f 15/15/15 27/27/27 14/14/14
f 5/5/5 15/15/15 14/14/14
f 4/4/4 3/3/3 28/28/28
f 29/29/29 30/30/30 24/24/24
f 4/4/4 28/28/28 31/31/31
f 31/31/31 29/29/29 24/24/24
f 31/31/31 24/24/24 4/4/4
f 32/32/32 24/24/24 30/30/30
f 30/30/30 33/33/33 34/34/34
f 34/34/34 35/35/35 36/36/36
f 36/36/36 32/32/32 30/30/30
f 30/30/30 34/34/34 36/36/36
f 37/37/37 38/38/38 39/39/39
f 39/39/39 40/40/40 37/37/37
f 41/41/41 42/42/42 43/43/43
f 43/43/43 44/44/44 41/41/41
f 42/42/42 45/45/45 46/46/46
f 46/46/46 43/43/43 42/42/42
f 45/45/45 37/37/37 40/40/40
f 40/40/40 46/46/46 45/45/45
f 47/47/47 48/48/48 49/49/49
f 49/49/49 50/50/50 47/47/47
f 51/51/51 52/52/52 53/53/53
f 53/53/53 54/54/54 51/51/51
f 52/52/52 55/55/55 56/56/56
f 56/56/56 53/53/53 52/52/52
f 55/55/55 57/57/57 58/58/58
f 58/58/58 56/56/56 55/55/55
f 59/59/59 47/47/47 50/50/50
f 50/50/50 60/60/60 59/59/59
f 57/57/57 41/41/41 44/44/44
f 44/44/44 58/58/58 57/57/57
f 61/61/61 62/62/62 63/63/63
f 63/63/63 64/64/64 61/61/61
f 65/65/65 66/66/66 67/67/67
f 67/67/67 68/68/68 65/65/65
f 66/66/66 69/69/69 70/70/70
f 70/70/70 67/67/67 66/66/66
f 69/69/69 61/61/61 64/64/64
f 64/64/64 70/70/70 69/69/69
f 71/71/71 72/72/72 73/73/73
f 73/73/73 74/74/74 71/71/71
f 75/75/75 71/71/71 74/74/74
f 74/74/74 76/76/76 75/75/75
f 77/77/77 78/78/78 79/79/79
f 79/79/79 80/80/80 77/77/77
f 81/81/81 75/75/75 76/76/76
f 76/76/76 82/82/82 81/81/81
f 83/83/83 84/84/84 85/85/85
f 85/85/85 86/86/86 83/83/83
f 84/84/84 77/77/77 80/80/80
f 80/80/80 85/85/85 84/84/84
f 87/87/87 83/83/83 86/86/86
f 86/86/86 88/88/88 87/87/87
f 62/62/62 89/89/89 90/90/90
f 90/90/90 63/63/63 62/62/62
f 89/89/89 59/59/59 60/60/60
f 60/60/60 90/90/90 89/89/89
f 38/38/38 91/91/91 92/92/92
f 92/92/92 39/39/39 38/38/38
f 93/93/93 94/94/94 95/95/95
f 95/95/95 96/96/96 93/93/93
f 91/91/91 97/97/97 98/98/98
f 98/98/98 92/92/92 91/91/91
f 97/97/97 93/93/93 96/96/96
f 96/96/96 98/98/98 97/97/97
f 99/99/99 87/87/87 88/88/88
f 88/88/88 100/100/100 99/99/99
f 94/94/94 101/101/101 102/102/102
f 102/102/102 95/95/95 94/94/94
f 101/101/101 103/103/103 104/104/104
f 104/104/104 102/102/102 101/101/101
f 105/105/105 106/106/106 107/107/107
f 107/107/107 108/108/108 105/105/105
f 106/106/106 109/109/109 110/110/110
f 110/110/110 107/107/107 106/106/106
f 109/109/109 99/99/99 100/100/100
f 100/100/100 110/110/110 109/109/109
f 111/1/111 112/3/112 113/111/113
f 111/1/111 114/4/114 112/3/112
f 113/111/113 115/5/115 111/1/111
f 115/5/115 116/7/116 117/6/117
f 116/7/116 113/111/113 118/8/118
f 115/5/115 113/111/113 116/7/116
f 119/9/119 120/11/120 121/10/121
f 119/9/119 122/12/122 120/11/120
f 119/9/119 123/13/123 122/12/122
f 124/14/124 123/13/123 119/9/119
f 123/13/123 115/5/115 117/6/117
f 124/14/124 115/5/115 123/13/123
f 125/15/125 126/16/126 115/5/115
f 127/17/127 128/19/128 129/18/129
f 128/19/128 115/5/115 126/16/126
f 128/19/128 127/17/127 115/5/115
f 127/17/127 111/1/111 115/5/115
f 127/17/127 130/20/130 111/1/111
f 130/20/130 114/4/114 111/1/111
f 130/20/130 131/21/131 114/4/114
f 132/22/132 131/21/131 133/23/133
f 131/21/131 134/24/134 114/4/114
f 135/25/135 132/22/132 136/26/136
f 132/22/132 134/24/134 131/21/131
f 134/24/134 132/22/132 135/25/135
f 125/15/125 124/14/124 137/27/137
f 115/5/115 124/14/124 125/15/125
f 114/4/114 138/28/138 112/3/112
f 139/29/139 134/24/134 140/112/140
f 114/4/114 141/113/141 138/28/138
f 141/113/141 134/24/134 139/29/139
f 141/113/141 114/4/114 134/24/134
f 142/32/142 140/112/140 134/24/134
f 140/112/140 143/34/143 144/33/144
f 143/34/143 145/36/145 146/35/146
f 145/36/145 140/112/140 142/32/142
f 140/112/140 145/36/145 143/34/143
f 147/114/147 148/115/148 149/116/149
f 148/115/148 147/114/147 150/117/150
f 151/118/151 152/119/152 153/120/153
f 152/119/152 151/118/151 154/121/154
f 153/120/153 155/122/155 156/123/156
f 155/122/155 153/120/153 152/119/152
f 156/123/156 150/117/150 147/114/147
f 150/117/150 156/123/156 155/122/155
f 157/124/157 158/125/158 159/126/159
f 158/125/158 157/124/157 160/127/160
f 161/128/161 162/129/162 163/130/163
f 162/129/162 161/128/161 164/131/164
f 163/130/163 165/132/165 166/133/166
f 165/132/165 163/130/163 162/129/162
f 166/133/166 167/134/167 168/135/168
f 167/134/167 166/133/166 165/132/165
f 169/136/169 160/127/160 157/124/157
f 160/127/160 169/136/169 170/137/170
f 168/135/168 154/121/154 151/118/151
f 154/121/154 168/135/168 167/134/167
f 171/138/171 172/139/172 173/140/173
f 172/139/172 171/138/171 174/141/174
f 175/142/175 176/143/176 177/144/177
f 176/143/176 175/142/175 178/145/178
f 177/144/177 179/146/179 180/147/180
f 179/146/179 177/144/177 176/143/176
f 180/147/180 174/141/174 171/138/171
f 174/141/174 180/147/180 179/146/179
f 181/148/181 182/149/182 183/150/183
f 182/149/182 181/148/181 184/151/184
f 185/152/185 184/151/184 181/148/181
f 184/151/184 185/152/185 186/153/186
f 187/154/187 188/155/188 189/156/189
f 188/155/188 187/154/187 190/157/190
f 191/158/191 186/153/186 185/152/185
f 186/153/186 191/158/191 192/159/192
f 193/160/193 194/161/194 195/162/195
f 194/161/194 193/160/193 196/163/196
f 195/162/195 190/157/190 187/154/187
f 190/157/190 195/162/195 194/161/194
f 197/164/197 196/163/196 193/160/193
f 196/163/196 197/164/197 198/165/198
f 173/140/173 199/166/199 200/167/200
f 199/166/199 173/140/173 172/139/172
f 200/167/200 170/137/170 169/136/169
f 170/137/170 200/167/200 199/166/199
f 149/116/149 201/168/201 202/169/202
f 201/168/201 149/116/149 148/115/148
f 203/170/203 204/171/204 205/172/205
f 204/171/204 203/170/203 206/173/206
f 202/169/202 207/174/207 208/175/208
f 207/174/207 202/169/202 201/168/201
f 208/175/208 206/173/206 203/170/203
f 206/173/206 208/175/208 207/174/207
f 209/176/209 198/165/198 197/164/197
f 198/165/198 209/176/209 210/177/210
f 205/172/205 211/178/211 212/179/212
f 211/178/211 205/172/205 204/171/204
f 212/179/212 213/180/213 214/181/214
f 213/180/213 212/179/212 211/178/211
f 215/182/215 216/183/216 217/184/217
f 216/183/216 215/182/215 218/185/218
f 217/184/217 219/186/219 220/187/220
f 219/186/219 217/184/217 216/183/216
f 220/187/220 210/177/210 209/176/209
f 210/177/210 220/187/220 219/186/219
f 183/150/183 72/72/72 71/71/71
f 183/150/183 71/71/71 181/148/181
f 177/144/177 66/66/66 65/65/65
f 177/144/177 65/65/65 175/142/175
f 177/144/177 180/147/180 69/69/69
f 177/144/177 69/69/69 66/66/66
f 180/147/180 171/138/171 61/61/61
f 180/147/180 61/61/61 69/69/69
f 171/138/171 173/140/173 62/62/62
f 171/138/171 62/62/62 61/61/61
f 173/140/173 200/167/200 89/89/89
f 173/140/173 89/89/89 62/62/62
f 185/152/185 181/148/181 71/71/71
f 185/152/185 71/71/71 75/75/75
f 75/75/75 81/81/81 191/158/191
f 75/75/75 191/158/191 185/152/185
f 78/78/78 77/77/77 187/154/187
f 78/78/78 187/154/187 189/156/189
f 77/77/77 84/84/84 195/162/195
f 77/77/77 195/162/195 187/154/187
f 84/84/84 83/83/83 193/160/193
f 84/84/84 193/160/193 195/162/195
f 83/83/83 87/87/87 197/164/197
f 83/83/83 197/164/197 193/160/193
f 87/87/87 99/99/99 209/176/209
f 87/87/87 209/176/209 197/164/197
f 99/99/99 109/109/109 220/187/220
f 99/99/99 220/187/220 209/176/209
f 109/109/109 106/106/106 217/184/217
f 109/109/109 217/184/217 220/187/220
f 106/106/106 105/105/105 215/182/215
f 106/106/106 215/182/215 217/184/217
f 200/167/200 169/136/169 59/59/59
f 200/167/200 59/59/59 89/89/89
f 169/136/169 157/124/157 47/47/47
f 169/136/169 47/47/47 59/59/59
f 157/124/157 159/126/159 48/48/48
f 157/124/157 48/48/48 47/47/47
f 45/45/45 156/123/156 147/114/147
f 45/45/45 147/114/147 37/37/37
f 37/37/37 147/114/147 149/116/149
f 37/37/37 149/116/149 38/38/38
f 103/103/103 101/101/101 212/179/212
f 103/103/103 212/179/212 214/181/214
f 221/188/221 48/48/48 159/126/159
f 221/188/221 159/126/159 222/189/221
f 55/55/55 52/52/52 163/130/163
f 55/55/55 163/130/163 166/133/166
f 166/133/166 168/135/168 151/118/151
f 166/133/166 151/118/151 153/120/153
f 166/133/166 153/120/153 156/123/156
f 57/57/57 55/55/55 41/41/41
f 41/41/41 55/55/55 42/42/42
f 42/42/42 55/55/55 45/45/45
f 149/116/149 202/169/202 208/175/208
f 149/116/149 208/175/208 203/170/203
f 149/116/149 203/170/203 205/172/205
f 149/116/149 205/172/205 212/179/212
f 91/91/91 38/38/38 97/97/97
f 97/97/97 38/38/38 93/93/93
f 93/93/93 38/38/38 94/94/94
f 94/94/94 38/38/38 101/101/101
s 0
f 223/179/222 224/101/222 225/38/222
f 223/179/222 225/38/222 226/116/222
f 227/123/223 228/45/223 229/55/223
f 230/123/223 231/55/223 232/133/223
s 1
f 233/190/224 234/191/225 235/192/226
f 233/190/224 236/190/227 234/191/225
f 233/190/224 237/193/228 236/190/227
f 233/190/224 238/194/229 237/193/228
f 233/190/224 239/193/224 238/194/229
f 233/190/224 240/190/230 241/193/231
f 233/190/224 242/191/232 240/190/230
f 233/190/224 235/192/226 243/191/224
f 235/192/226 244/195/233 245/196/234
f 235/192/226 234/191/225 244/195/233
f 234/191/225 246/197/235 244/195/233
f 234/191/225 236/190/227 246/197/235
f 236/190/227 247/198/236 246/197/235
f 236/190/227 237/193/228 247/198/236
f 237/193/228 248/199/237 247/198/236
f 237/193/228 238/194/229 248/199/237
f 249/194/238 250/198/239 251/199/238
f 249/194/238 241/193/231 250/198/239
f 241/193/231 252/197/240 250/198/239
f 241/193/231 240/190/230 252/197/240
f 240/190/230 253/195/241 252/197/240
f 240/190/230 242/191/232 253/195/241
f 242/191/232 254/196/242 253/195/241
f 242/191/232 255/192/242 254/196/242
f 256/200/243 257/201/243 258/202/243
f 256/200/243 258/202/243 259/203/243
f 256/200/243 259/203/243 260/204/243
f 256/200/243 260/204/243 261/205/243
f 256/200/243 261/205/243 262/206/243
f 256/200/243 262/206/243 263/207/243
f 256/200/243 263/207/243 264/208/243
f 256/200/243 264/208/243 257/201/243
f 265/209/243 266/210/244 267/211/245
f 265/209/243 267/211/245 268/209/246
f 265/209/243 268/209/246 269/212/247
f 265/209/243 269/212/247 270/213/248
f 265/209/243 270/213/248 271/212/243
f 265/209/243 272/212/249 273/209/250
f 265/209/243 273/209/250 274/211/251
f 265/209/243 275/211/243 266/210/244
f 266/210/244 276/214/234 277/215/233
f 266/210/244 277/215/233 267/211/245
f 267/211/245 277/215/233 278/216/235
f 267/211/245 278/216/235 268/209/246
f 268/209/246 278/216/235 279/217/236
f 268/209/246 279/217/236 269/212/247
f 269/212/247 279/217/236 280/218/237
f 269/212/247 280/218/237 270/213/248
f 281/213/238 282/218/238 283/217/239
f 281/213/238 283/217/239 272/212/249
f 272/212/249 283/217/239 284/216/240
f 272/212/249 284/216/240 273/209/250
f 273/209/250 284/216/240 285/215/241
f 273/209/250 285/215/241 274/211/251
f 274/211/251 285/215/241 286/214/242
f 274/211/251 286/214/242 287/210/242
f 288/200/224 289/202/224 290/201/224
f 288/200/224 291/203/224 289/202/224
f 288/200/224 292/204/224 291/203/224
f 288/200/224 293/205/224 292/204/224
f 288/200/224 294/206/224 293/205/224
f 288/200/224 295/207/224 294/206/224
f 288/200/224 296/208/224 295/207/224
f 288/200/224 290/201/224 296/208/224
f 297/219/243 298/220/252 299/221/253
f 297/219/243 299/221/253 300/219/246
f 297/219/243 300/219/246 301/222/254
f 297/219/243 301/222/254 302/223/255
f 297/219/243 302/223/255 303/222/243
f 297/219/243 304/222/256 305/219/250
f 297/219/243 305/219/250 306/221/257
f 297/219/243 307/221/243 298/220/252
f 298/220/252 308/224/258 309/225/259
f 298/220/252 309/225/259 299/221/253
f 299/221/253 309/225/259 310/226/260
f 299/221/253 310/226/260 300/219/246
f 300/219/246 310/226/260 311/227/261
f 300/219/246 311/227/261 301/222/254
f 301/222/254 311/227/261 312/228/262
f 301/222/254 312/228/262 302/223/255
f 313/223/263 314/228/263 315/227/264
f 313/223/263 315/227/264 304/222/256
f 304/222/256 315/227/264 316/226/240
f 304/222/256 316/226/240 305/219/250
f 305/219/250 316/226/240 317/225/265
f 305/219/250 317/225/265 306/221/257
f 306/221/257 317/225/265 318/224/266
f 306/221/257 318/224/266 319/220/266
f 320/229/224 321/230/224 322/231/224
f 320/229/224 323/232/224 321/230/224
f 320/229/224 324/233/224 323/232/224
f 320/229/224 325/234/224 324/233/224
f 320/229/224 326/235/224 325/234/224
f 320/229/224 327/236/224 326/235/224
f 320/229/224 328/237/224 327/236/224
f 320/229/224 322/231/224 328/237/224
f 329/238/224 330/239/267 331/240/268
f 329/238/224 332/238/227 330/239/267
f 329/238/224 333/241/269 332/238/227
f 329/238/224 334/242/270 333/241/269
f 329/238/224 335/241/224 334/242/270
f 329/238/224 336/238/230 337/241/271
f 329/238/224 338/239/272 336/238/230
f 329/238/224 331/240/268 339/239/224
f 331/240/268 340/243/259 341/244/258
f 331/240/268 330/239/267 340/243/259
f 330/239/267 342/245/260 340/243/259
f 330/239/267 332/238/227 342/245/260
f 332/238/227 343/246/261 342/245/260
f 332/238/227 333/241/269 343/246/261
f 333/241/269 344/247/262 343/246/261
f 333/241/269 334/242/270 344/247/262
f 345/242/263 346/246/264 347/247/263
f 345/242/263 337/241/271 346/246/264
f 337/241/271 348/245/240 346/246/264
f 337/241/271 336/238/230 348/245/240
f 336/238/230 349/243/265 348/245/240
f 336/238/230 338/239/272 349/243/265
f 338/239/272 350/244/266 349/243/265
f 338/239/272 351/240/266 350/244/266
f 352/229/243 353/231/243 354/230/243
f 352/229/243 354/230/243 355/232/243
f 352/229/243 355/232/243 356/233/243
f 352/229/243 356/233/243 357/234/243
f 352/229/243 357/234/243 358/235/243
f 352/229/243 358/235/243 359/236/243
f 352/229/243 359/236/243 360/237/243
f 352/229/243 360/237/243 353/231/243
