# Blender 4.4.0
# www.blender.org
mtllib player.mtl
o AutoPlayer
v -0.062200 0.077727 -0.014816
v -0.079113 0.033562 0.046516
v -0.065706 0.078647 0.043861
v -0.062304 0.071573 -0.026817
v -0.093157 -0.037040 -0.073914
v -0.090911 -0.037097 0.052406
v -0.092555 -0.004398 0.054962
v -0.093167 -0.002639 -0.075005
v -0.089792 0.022817 0.046295
v -0.087484 0.026865 -0.069618
v -0.079786 0.036639 -0.063530
v -0.076494 0.042793 -0.058861
v -0.083301 0.033740 -0.072655
v -0.094705 -0.016758 -0.102135
v -0.089722 -0.036838 -0.101097
v -0.095527 -0.005536 -0.108650
v -0.096199 0.002067 -0.119865
v -0.088098 0.028568 -0.117012
v -0.094413 0.005325 -0.134361
v -0.093811 0.003515 -0.148849
v -0.090740 0.023734 -0.163818
v -0.093919 -0.001915 -0.161156
v -0.093296 0.015638 -0.171829
v -0.093953 -0.008433 -0.165138
v -0.094586 0.006944 -0.175606
v -0.095358 -0.001773 -0.176285
v -0.096452 -0.014436 -0.179771
v -0.093982 -0.021826 -0.168396
v -0.093990 -0.003618 -0.184052
v -0.089687 -0.022691 -0.176964
v -0.076369 -0.042535 -0.170036
v -0.095100 -0.017210 0.176483
v -0.095092 0.014874 0.175941
v -0.091540 0.017075 0.169662
v -0.091857 -0.021975 0.170494
v -0.090072 -0.025250 0.160683
v -0.094433 -0.018878 0.159218
v -0.095403 -0.011276 0.153786
v -0.082871 0.033333 0.171043
v -0.073318 0.035242 0.177162
v -0.066913 0.051584 0.155983
v -0.076469 0.048453 0.150467
v -0.091540 0.017075 0.169662
v -0.080986 0.018716 0.176949
v -0.095505 -0.010914 0.142563
v -0.064685 -0.010914 0.142303
v -0.064584 -0.011276 0.153526
v -0.058068 0.073690 0.121529
v -0.066703 0.070664 0.118828
v -0.095652 -0.011276 0.126274
v -0.064833 -0.011276 0.126015
v -0.066703 0.070664 0.118828
v -0.058068 0.073690 0.121529
v -0.056904 0.078195 0.114189
v -0.066189 0.074682 0.112099
v -0.095800 -0.012362 0.109985
v -0.064981 -0.012362 0.109726
v -0.094926 -0.019964 0.102745
v -0.064403 -0.019964 0.102486
v -0.053748 0.082088 0.081421
v -0.065381 0.078285 0.081154
v -0.090509 -0.037067 0.100525
v -0.060859 -0.041783 0.099747
v -0.090911 -0.037097 0.052406
v -0.060910 -0.041578 0.052147
v -0.060859 -0.041783 0.099747
v -0.090509 -0.037067 0.100525
v -0.054077 0.082529 0.043770
v -0.051511 0.081340 -0.014793
v -0.051622 0.077720 -0.027473
v -0.093157 -0.037040 -0.073914
v -0.063334 -0.041543 -0.074493
v -0.066643 0.043161 -0.064285
v -0.089722 -0.036838 -0.101097
v -0.061786 -0.041617 -0.103607
v -0.066749 -0.016758 -0.102379
v -0.061786 -0.041617 -0.103607
v -0.067571 -0.005536 -0.108894
v -0.068243 0.002067 -0.120110
v -0.073435 0.037750 -0.076431
v -0.078236 0.032767 -0.121239
v -0.066456 0.005325 -0.134605
v -0.065855 0.003515 -0.149094
v -0.080910 0.024659 -0.171707
v -0.065962 -0.001915 -0.161400
v -0.083450 0.016576 -0.177757
v -0.065997 -0.008433 -0.165382
v -0.084732 0.007013 -0.180641
v -0.085499 -0.001158 -0.180885
v -0.066025 -0.021826 -0.168640
v -0.087818 -0.003697 -0.188164
v -0.086614 -0.015977 -0.186806
v -0.076369 -0.042535 -0.170036
v -0.075146 -0.041425 -0.178108
v -0.066025 -0.021826 -0.168640
v -0.071460 -0.026818 -0.182602
v -0.075146 -0.041425 -0.178108
v -0.084547 0.015699 0.181976
v -0.080986 0.018716 0.176949
v -0.084581 -0.020293 0.179573
v -0.081359 -0.033287 0.171059
v -0.079568 -0.039577 0.162003
v -0.063910 -0.018878 0.158958
v -0.069934 0.039543 -0.068924
v -0.054077 0.082529 0.043770
v -0.053748 0.082088 0.081421
v 0.000627 0.084904 0.083672
v 0.000288 0.085359 0.044899
v -0.051511 0.081340 -0.014793
v -0.000230 0.084175 -0.014503
v -0.056904 0.078195 0.114189
v 0.000923 0.081014 0.117661
v -0.056904 0.078195 0.114189
v -0.058068 0.073690 0.121529
v 0.000990 0.080008 0.118988
v 0.000923 0.081014 0.117661
v -0.066913 0.051584 0.155983
v 0.001344 0.053785 0.161774
v -0.073318 0.035242 0.177162
v 0.001502 0.037466 0.184593
v -0.080986 0.018716 0.176949
v 0.001496 0.019911 0.183296
v -0.084547 0.015699 0.181976
v 0.001542 0.018478 0.188522
v -0.084581 -0.020293 0.179573
v 0.001507 -0.017833 0.184479
v -0.081359 -0.033287 0.171059
v 0.001430 -0.030572 0.175751
v -0.079568 -0.039577 0.162003
v 0.001349 -0.038435 0.166443
v -0.051622 0.077720 -0.027473
v -0.000344 0.080383 -0.027611
v -0.066643 0.043161 -0.064285
v -0.051622 0.077720 -0.027473
v -0.000344 0.080383 -0.027611
v -0.000684 0.044661 -0.066505
v -0.000726 0.040933 -0.071312
v -0.069934 0.039543 -0.068924
v -0.000793 0.039086 -0.079079
v -0.073435 0.037750 -0.076431
v -0.069934 0.039543 -0.068924
v -0.000726 0.040933 -0.071312
v -0.001197 0.034080 -0.125267
v -0.078236 0.032767 -0.121239
v -0.001650 0.025728 -0.177269
v -0.080910 0.024659 -0.171707
v -0.001705 0.017403 -0.183525
v -0.083450 0.016576 -0.177757
v -0.080910 0.024659 -0.171707
v -0.001650 0.025728 -0.177269
v -0.001731 0.007553 -0.186508
v -0.084732 0.007013 -0.180641
v -0.001733 -0.000863 -0.186760
v -0.085499 -0.001158 -0.180885
v -0.001796 -0.003478 -0.193916
v -0.087818 -0.003697 -0.188164
v -0.001783 -0.016127 -0.192497
v -0.086614 -0.015977 -0.186806
v -0.001747 -0.027292 -0.188408
v -0.071460 -0.026818 -0.182602
v -0.001651 -0.043420 -0.177330
v -0.075146 -0.041425 -0.178108
v -0.076469 0.048453 0.150467
v -0.075146 -0.041425 -0.178108
v -0.075146 -0.041425 -0.178108
v -0.001651 -0.043420 -0.177330
v 0.001349 -0.038435 0.166443
v -0.079568 -0.039577 0.162003
v -0.060859 -0.041783 0.099747
v -0.061786 -0.041617 -0.103607
v -0.060859 -0.041783 0.099747
v -0.060910 -0.041578 0.052147
v -0.061786 -0.041617 -0.103607
v 0.079707 0.033562 0.046501
v 0.061744 0.077727 -0.014809
v 0.066255 0.078647 0.043808
v 0.061640 0.071573 -0.026756
v 0.091605 -0.037097 0.052361
v 0.091646 -0.037040 -0.075523
v 0.093294 -0.004398 0.055016
v 0.091637 -0.002639 -0.076614
v 0.090380 0.022817 0.046272
v 0.086048 0.026865 -0.071129
v 0.078458 0.036639 -0.064911
v 0.075249 0.042793 -0.060181
v 0.081814 0.033740 -0.074089
v 0.087737 -0.036838 -0.102646
v 0.092702 -0.016758 -0.103775
v 0.093410 -0.005536 -0.110298
v 0.093886 0.002067 -0.121521
v 0.085835 0.028568 -0.118523
v 0.091847 0.005325 -0.135986
v 0.090993 0.003515 -0.150459
v 0.087660 0.023734 -0.165375
v 0.090885 -0.001915 -0.162773
v 0.090077 0.015638 -0.173424
v 0.090850 -0.008433 -0.166748
v 0.091301 0.006944 -0.177223
v 0.092060 -0.001773 -0.177917
v 0.090822 -0.021826 -0.170006
v 0.093093 -0.014436 -0.181427
v 0.090556 -0.003618 -0.185661
v 0.073183 -0.042535 -0.171341
v 0.086379 -0.022691 -0.178505
v 0.097968 0.014874 0.175758
v 0.097959 -0.017210 0.174797
v 0.094309 0.017075 0.169662
v 0.094611 -0.021975 0.168869
v 0.092656 -0.025250 0.159088
v 0.096991 -0.018878 0.157593
v 0.097880 -0.011276 0.152168
v 0.076234 0.035242 0.177147
v 0.085715 0.033333 0.171089
v 0.069520 0.051584 0.155983
v 0.078996 0.048453 0.150429
v 0.083880 0.018716 0.176949
v 0.094309 0.017075 0.169662
v 0.066959 -0.010914 0.141197
v 0.097779 -0.010914 0.140938
v 0.067061 -0.011276 0.152420
v 0.059980 0.073702 0.121536
v 0.068593 0.070615 0.118843
v 0.066812 -0.011276 0.124916
v 0.097631 -0.011276 0.124649
v 0.059980 0.073702 0.121536
v 0.068593 0.070615 0.118843
v 0.058681 0.078226 0.114174
v 0.067964 0.074686 0.112099
v 0.066664 -0.012362 0.108620
v 0.097483 -0.012362 0.108360
v 0.065976 -0.019964 0.101379
v 0.096498 -0.019964 0.101120
v 0.054954 0.081982 0.081352
v 0.066581 0.078240 0.081192
v 0.062389 -0.041783 0.098671
v 0.092006 -0.037067 0.098930
v 0.061604 -0.041578 0.052185
v 0.091605 -0.037097 0.052361
v 0.062389 -0.041783 0.098671
v 0.092006 -0.037067 0.098930
v 0.054626 0.082529 0.043762
v 0.051054 0.081403 -0.014824
v 0.050943 0.077721 -0.027542
v 0.061817 -0.041543 -0.075584
v 0.091646 -0.037040 -0.075523
v 0.065305 0.043161 -0.065437
v 0.059761 -0.041617 -0.104668
v 0.087737 -0.036838 -0.102646
v 0.064745 -0.016758 -0.103531
v 0.059761 -0.041617 -0.104668
v 0.065453 -0.005536 -0.110054
v 0.093410 -0.005536 -0.110298
v 0.064745 -0.016758 -0.103531
v 0.065929 0.002067 -0.121277
v 0.065453 -0.005536 -0.110054
v 0.093886 0.002067 -0.121521
v 0.071884 0.037750 -0.077698
v 0.075902 0.032767 -0.122581
v 0.063890 0.005325 -0.135742
v 0.063036 0.003515 -0.150215
v 0.077694 0.024659 -0.173088
v 0.062929 -0.001915 -0.162529
v 0.080128 0.016576 -0.179176
v 0.062894 -0.008433 -0.166504
v 0.081360 0.007013 -0.182091
v 0.082123 -0.001158 -0.182343
v 0.062865 -0.021826 -0.169762
v 0.084314 -0.003697 -0.189667
v 0.083134 -0.015977 -0.188286
v 0.071819 -0.041425 -0.179390
v 0.073183 -0.042535 -0.171341
v 0.062865 -0.021826 -0.169762
v 0.068055 -0.026818 -0.183815
v 0.071819 -0.041425 -0.179390
v 0.087530 0.015699 0.181992
v 0.083880 0.018716 0.176949
v 0.087495 -0.020293 0.178070
v 0.084126 -0.033287 0.169617
v 0.082177 -0.039577 0.160591
v 0.066468 -0.018878 0.157852
v 0.068514 0.039543 -0.070129
v 0.054954 0.081982 0.081352
v 0.054626 0.082529 0.043762
v 0.051054 0.081403 -0.014824
v 0.058681 0.078226 0.114174
v 0.059980 0.073702 0.121536
v 0.058681 0.078226 0.114174
v 0.069520 0.051584 0.155983
v 0.076234 0.035242 0.177147
v 0.083880 0.018716 0.176949
v 0.087530 0.015699 0.181992
v 0.087495 -0.020293 0.178070
v 0.084126 -0.033287 0.169617
v 0.082177 -0.039577 0.160591
v 0.050943 0.077721 -0.027542
v 0.050943 0.077721 -0.027542
v 0.065305 0.043161 -0.065437
v 0.068514 0.039543 -0.070129
v 0.071884 0.037750 -0.077698
v 0.068514 0.039543 -0.070129
v 0.075902 0.032767 -0.122581
v 0.077694 0.024659 -0.173088
v 0.080128 0.016576 -0.179176
v 0.077694 0.024659 -0.173088
v 0.081360 0.007013 -0.182091
v 0.082123 -0.001158 -0.182343
v 0.084314 -0.003697 -0.189667
v 0.083134 -0.015977 -0.188286
v 0.068055 -0.026818 -0.183815
v 0.071819 -0.041425 -0.179390
v 0.078996 0.048453 0.150429
v 0.071819 -0.041425 -0.179390
v 0.071819 -0.041425 -0.179390
v 0.082177 -0.039577 0.160591
v 0.062389 -0.041783 0.098671
v 0.059761 -0.041617 -0.104668
v 0.061604 -0.041578 0.052185
v 0.062389 -0.041783 0.098671
v 0.059761 -0.041617 -0.104668
v 0.061465 -0.014668 -0.165298
v 0.061401 -0.030668 -0.169579
v 0.061881 -0.030668 -0.137581
v 0.061641 -0.002955 -0.153587
v 0.061881 0.001332 -0.137581
v 0.062121 -0.002955 -0.121582
v 0.062297 -0.014668 -0.109871
v 0.062362 -0.030668 -0.105583
v 0.062297 -0.046668 -0.109871
v 0.062121 -0.058382 -0.121582
v 0.061881 -0.062669 -0.137581
v 0.061641 -0.058382 -0.153587
v 0.061465 -0.046668 -0.165298
v 0.091134 -0.014668 -0.165443
v 0.091070 -0.030668 -0.169731
v 0.061401 -0.030668 -0.169579
v 0.061465 -0.014668 -0.165298
v 0.091310 -0.002955 -0.153732
v 0.061641 -0.002955 -0.153587
v 0.091966 -0.014668 -0.110023
v 0.091790 -0.002955 -0.121735
v 0.062121 -0.002955 -0.121582
v 0.062297 -0.014668 -0.109871
v 0.092030 -0.030668 -0.105736
v 0.062362 -0.030668 -0.105583
v 0.091966 -0.046668 -0.110023
v 0.092030 -0.030668 -0.105736
v 0.062362 -0.030668 -0.105583
v 0.062297 -0.046668 -0.109871
v 0.091790 -0.058382 -0.121735
v 0.062121 -0.058382 -0.121582
v 0.091550 -0.062669 -0.137733
v 0.061881 -0.062669 -0.137581
v 0.091310 -0.058382 -0.153732
v 0.061641 -0.058382 -0.153587
v 0.091134 -0.046668 -0.165443
v 0.061465 -0.046668 -0.165298
v 0.091070 -0.030668 -0.169731
v 0.061401 -0.030668 -0.169579
v 0.091070 -0.030668 -0.169731
v 0.091134 -0.014668 -0.165443
v 0.091550 -0.030668 -0.137733
v 0.091310 -0.002955 -0.153732
v 0.091550 0.001332 -0.137733
v 0.091790 -0.002955 -0.121735
v 0.091966 -0.014668 -0.110023
v 0.092030 -0.030668 -0.105736
v 0.091966 -0.046668 -0.110023
v 0.091790 -0.058382 -0.121735
v 0.091550 -0.062669 -0.137733
v 0.091310 -0.058382 -0.153732
v 0.091134 -0.046668 -0.165443
v 0.062104 -0.018349 0.103706
v 0.062043 -0.033349 0.099678
v 0.062493 -0.033349 0.129677
v 0.062268 -0.007368 0.114685
v 0.062493 -0.003348 0.129677
v 0.062719 -0.007368 0.144684
v 0.062883 -0.018349 0.155663
v 0.062944 -0.033349 0.159676
v 0.062883 -0.048348 0.155663
v 0.062719 -0.059329 0.144684
v 0.062493 -0.063349 0.129677
v 0.062268 -0.059329 0.114685
v 0.062104 -0.048348 0.103706
v 0.093552 -0.018349 0.103546
v 0.093492 -0.033349 0.099525
v 0.062043 -0.033349 0.099678
v 0.062104 -0.018349 0.103706
v 0.093717 -0.007368 0.114525
v 0.062268 -0.007368 0.114685
v 0.094332 -0.018349 0.155502
v 0.094168 -0.007368 0.144524
v 0.062719 -0.007368 0.144684
v 0.062883 -0.018349 0.155663
v 0.094393 -0.033349 0.159523
v 0.062944 -0.033349 0.159676
v 0.094332 -0.048348 0.155502
v 0.094393 -0.033349 0.159523
v 0.062944 -0.033349 0.159676
v 0.062883 -0.048348 0.155663
v 0.094168 -0.059329 0.144524
v 0.062719 -0.059329 0.144684
v 0.093942 -0.063349 0.129524
v 0.062493 -0.063349 0.129677
v 0.093717 -0.059329 0.114525
v 0.062268 -0.059329 0.114685
v 0.093552 -0.048348 0.103546
v 0.062104 -0.048348 0.103706
v 0.093492 -0.033349 0.099525
v 0.062043 -0.033349 0.099678
v 0.093492 -0.033349 0.099525
v 0.093552 -0.018349 0.103546
v 0.093942 -0.033349 0.129524
v 0.093717 -0.007368 0.114525
v 0.093942 -0.003348 0.129524
v 0.094168 -0.007368 0.144524
v 0.094332 -0.018349 0.155502
v 0.094393 -0.033349 0.159523
v 0.094332 -0.048348 0.155502
v 0.094168 -0.059329 0.144524
v 0.093942 -0.063349 0.129524
v 0.093717 -0.059329 0.114525
v 0.093552 -0.048348 0.103546
v -0.064959 -0.030668 -0.168373
v -0.064895 -0.014668 -0.164085
v -0.064479 -0.030668 -0.136375
v -0.064719 -0.002955 -0.152367
v -0.064479 0.001332 -0.136375
v -0.064238 -0.002955 -0.120377
v -0.064063 -0.014668 -0.108665
v -0.063998 -0.030668 -0.104370
v -0.064063 -0.046668 -0.108665
v -0.064238 -0.058382 -0.120377
v -0.064479 -0.062669 -0.136375
v -0.064719 -0.058382 -0.152367
v -0.064895 -0.046668 -0.164085
v -0.094628 -0.030668 -0.168221
v -0.094563 -0.014668 -0.163933
v -0.064959 -0.030668 -0.168373
v -0.064895 -0.014668 -0.164085
v -0.094388 -0.002955 -0.152222
v -0.064719 -0.002955 -0.152367
v -0.093907 -0.002955 -0.120224
v -0.093732 -0.014668 -0.108513
v -0.064238 -0.002955 -0.120377
v -0.064063 -0.014668 -0.108665
v -0.093667 -0.030668 -0.104225
v -0.063998 -0.030668 -0.104370
v -0.093667 -0.030668 -0.104225
v -0.093732 -0.046668 -0.108513
v -0.063998 -0.030668 -0.104370
v -0.064063 -0.046668 -0.108665
v -0.093907 -0.058382 -0.120224
v -0.064238 -0.058382 -0.120377
v -0.094147 -0.062669 -0.136223
v -0.064479 -0.062669 -0.136375
v -0.094388 -0.058382 -0.152222
v -0.064719 -0.058382 -0.152367
v -0.094563 -0.046668 -0.163933
v -0.064895 -0.046668 -0.164085
v -0.094628 -0.030668 -0.168221
v -0.064959 -0.030668 -0.168373
v -0.094563 -0.014668 -0.163933
v -0.094628 -0.030668 -0.168221
v -0.094147 -0.030668 -0.136223
v -0.094388 -0.002955 -0.152222
v -0.094147 0.001332 -0.136223
v -0.093907 -0.002955 -0.120224
v -0.093732 -0.014668 -0.108513
v -0.093667 -0.030668 -0.104225
v -0.093732 -0.046668 -0.108513
v -0.093907 -0.058382 -0.120224
v -0.094147 -0.062669 -0.136223
v -0.094388 -0.058382 -0.152222
v -0.094563 -0.046668 -0.163933
v -0.060877 -0.033349 0.100868
v -0.060816 -0.018349 0.104889
v -0.060426 -0.033349 0.130867
v -0.060651 -0.007368 0.115868
v -0.060426 -0.003348 0.130867
v -0.060201 -0.007368 0.145874
v -0.060036 -0.018349 0.156853
v -0.059976 -0.033349 0.160866
v -0.060036 -0.048348 0.156853
v -0.060201 -0.059329 0.145874
v -0.060426 -0.063349 0.130867
v -0.060651 -0.059329 0.115868
v -0.060816 -0.048348 0.104889
v -0.092326 -0.033349 0.101028
v -0.092265 -0.018349 0.105049
v -0.060877 -0.033349 0.100868
v -0.060816 -0.018349 0.104889
v -0.092100 -0.007368 0.116035
v -0.060651 -0.007368 0.115868
v -0.091650 -0.007368 0.146034
v -0.091485 -0.018349 0.157013
v -0.060201 -0.007368 0.145874
v -0.060036 -0.018349 0.156853
v -0.091425 -0.033349 0.161026
v -0.059976 -0.033349 0.160866
v -0.091425 -0.033349 0.161026
v -0.091485 -0.048348 0.157013
v -0.059976 -0.033349 0.160866
v -0.060036 -0.048348 0.156853
v -0.091650 -0.059329 0.146034
v -0.060201 -0.059329 0.145874
v -0.091875 -0.063349 0.131027
v -0.060426 -0.063349 0.130867
v -0.092100 -0.059329 0.116035
v -0.060651 -0.059329 0.115868
v -0.092265 -0.048348 0.105049
v -0.060816 -0.048348 0.104889
v -0.092326 -0.033349 0.101028
v -0.060877 -0.033349 0.100868
v -0.092265 -0.018349 0.105049
v -0.092326 -0.033349 0.101028
v -0.091875 -0.033349 0.131027
v -0.092100 -0.007368 0.116035
v -0.091875 -0.003348 0.131027
v -0.091650 -0.007368 0.146034
v -0.091485 -0.018349 0.157013
v -0.091425 -0.033349 0.161026
v -0.091485 -0.048348 0.157013
v -0.091650 -0.059329 0.146034
v -0.091875 -0.063349 0.131027
v -0.092100 -0.059329 0.116035
v -0.092265 -0.048348 0.105049
v -0.082871 0.033333 0.171043
v 0.085715 0.033333 0.171089
vn -0.7092 0.6856 -0.1643
vn -0.8970 0.4389 0.0531
vn -0.7221 0.6915 -0.0209
vn -0.7191 0.6294 -0.2945
vn -0.9986 -0.0535 -0.0053
vn -0.9986 -0.0512 0.0133
vn -0.9952 0.0955 0.0199
vn -0.9954 0.0910 0.0292
vn -0.7871 0.4276 0.4445
vn -0.9154 0.4026 0.0047
vn -0.6942 0.7101 -0.1172
vn -0.6807 0.6692 -0.2982
vn -0.6921 0.7215 -0.0211
vn -0.7860 -0.2377 -0.5707
vn -0.6157 -0.1923 -0.7642
vn -0.8063 -0.4155 -0.4210
vn -0.8442 -0.4631 -0.2699
vn -0.7604 0.6488 -0.0284
vn -0.8413 -0.5296 -0.1081
vn -0.7966 -0.5751 0.1861
vn -0.6977 0.6960 -0.1700
vn -0.7996 -0.4307 0.4184
vn -0.8337 0.4146 -0.3647
vn -0.7127 -0.2303 0.6625
vn -0.8551 0.2118 -0.4732
vn -0.9565 0.0893 -0.2776
vn -0.9000 -0.2523 -0.3553
vn -0.7058 -0.4710 0.5292
vn -0.7048 0.4794 -0.5229
vn -0.5851 -0.5883 -0.5581
vn -0.6853 -0.5798 0.4407
vn -0.8714 -0.3237 0.3687
vn -0.8616 0.4396 0.2536
vn -0.8861 0.4597 -0.0593
vn -0.8864 -0.4517 0.1014
vn -0.8566 -0.5151 -0.0306
vn -0.8170 -0.5694 -0.0916
vn -0.8716 -0.4508 -0.1926
vn -0.5427 0.4909 0.6815
vn -0.5224 0.5775 0.6274
vn -0.4794 0.7789 0.4044
vn -0.4803 0.7799 0.4012
vn -0.5692 0.2472 0.7841
vn -0.5758 0.2571 0.7761
vn -0.9281 -0.3711 0.0307
vn -0.8491 -0.5283 0.0009
vn -0.7718 -0.5318 -0.3486
vn -0.4281 0.7982 0.4239
vn -0.4158 0.7997 0.4331
vn -0.8415 -0.5389 0.0390
vn -0.8446 -0.5347 0.0267
vn -0.8322 0.5294 0.1652
vn -0.4152 0.8033 0.4271
vn -0.3956 0.8818 0.2568
vn -0.7285 0.6599 0.1836
vn -0.8757 -0.4103 0.2545
vn -0.7000 -0.6621 0.2677
vn -0.7921 -0.3931 0.4669
vn -0.6925 -0.3672 0.6210
vn -0.3171 0.9469 0.0540
vn -0.7060 0.7071 0.0387
vn -0.6540 -0.2108 0.7265
vn -0.8184 -0.2005 0.5385
vn -0.1494 -0.9888 0.0001
vn -0.1474 -0.9891 -0.0009
vn -0.1537 -0.9881 -0.0002
vn -0.1570 -0.9876 0.0019
vn -0.3162 0.9486 -0.0107
vn -0.3163 0.9375 -0.1447
vn -0.4253 0.8104 -0.4030
vn -0.1494 -0.9887 -0.0112
vn -0.0985 -0.9951 -0.0033
vn -0.3168 0.8057 -0.5004
vn -0.1592 -0.9871 -0.0166
vn -0.1641 -0.9864 -0.0062
vn -0.6483 -0.2229 -0.7280
vn -0.8494 -0.1720 -0.4989
vn -0.6309 -0.5433 -0.5539
vn -0.4943 -0.7919 -0.3585
vn -0.3799 0.9216 -0.0791
vn -0.4231 0.9010 -0.0956
vn -0.6708 -0.7390 -0.0632
vn -0.7047 -0.6849 0.1854
vn -0.4428 0.7843 -0.4345
vn -0.6570 -0.5671 0.4968
vn -0.5050 0.4937 -0.7079
vn -0.6770 -0.2836 0.6792
vn -0.4681 0.2185 -0.8562
vn -0.3756 0.6109 -0.6969
vn -0.7669 0.1133 0.6317
vn -0.4962 0.4484 -0.7435
vn -0.5269 -0.5774 -0.6237
vn 0.8902 -0.4496 0.0731
vn -0.3690 -0.3648 -0.8548
vn -0.6826 -0.4971 -0.5357
vn -0.4211 0.5657 0.7090
vn -0.2707 0.9185 0.2884
vn -0.4643 -0.4413 0.7679
vn -0.7459 -0.5944 0.3005
vn -0.8998 -0.1479 -0.4106
vn -0.9245 0.0770 -0.3734
vn -0.3557 0.8825 -0.3077
vn -0.0519 0.9986 -0.0052
vn -0.0539 0.9966 0.0628
vn 0.0007 0.9979 0.0643
vn -0.0001 1.0000 -0.0046
vn -0.0529 0.9875 -0.1482
vn -0.0005 0.9889 -0.1489
vn -0.0551 0.9921 0.1126
vn 0.0009 0.9937 0.1124
vn -0.0695 0.8542 0.5154
vn -0.0701 0.8514 0.5197
vn 0.0007 0.8271 0.5621
vn -0.0020 0.7972 0.6037
vn -0.0744 0.8222 0.5643
vn -0.0000 0.8313 0.5558
vn -0.1004 0.3835 0.9181
vn 0.0003 0.4259 0.9048
vn -0.0752 0.6472 0.7586
vn -0.0002 0.5834 0.8122
vn -0.0756 0.3676 0.9269
vn 0.0043 0.5586 0.8294
vn -0.0524 -0.3164 0.9472
vn 0.0082 -0.3405 0.9402
vn -0.0196 -0.6902 0.7233
vn 0.0065 -0.6693 0.7429
vn -0.0070 -0.8170 0.5765
vn 0.0056 -0.7639 0.6453
vn -0.0514 0.9603 -0.2743
vn -0.0005 0.9606 -0.2779
vn -0.0380 0.7764 -0.6291
vn -0.0401 0.7366 -0.6752
vn -0.0034 0.7387 -0.6740
vn -0.0056 0.7641 -0.6450
vn -0.0053 0.7909 -0.6120
vn -0.0367 0.8005 -0.5983
vn -0.0015 0.9857 -0.1685
vn -0.0240 0.9876 -0.1552
vn -0.0261 0.9748 -0.2213
vn -0.0020 0.9729 -0.2313
vn -0.0012 0.9910 -0.1340
vn -0.0236 0.9908 -0.1334
vn -0.0014 0.9874 -0.1582
vn -0.0244 0.9872 -0.1573
vn -0.0078 0.4509 -0.8926
vn -0.0671 0.4432 -0.8939
vn -0.0620 0.6097 -0.7902
vn -0.0070 0.6008 -0.7994
vn -0.0086 0.1613 -0.9869
vn -0.0703 0.1588 -0.9848
vn -0.0070 0.5952 -0.8036
vn -0.0543 0.6487 -0.7591
vn -0.0075 0.5177 -0.8555
vn -0.0595 0.4987 -0.8648
vn -0.0085 -0.2287 -0.9735
vn -0.0697 -0.2097 -0.9753
vn -0.0077 -0.4614 -0.8871
vn -0.0482 -0.4042 -0.9134
vn -0.0074 -0.5312 -0.8472
vn 0.0021 -0.2945 -0.9556
vn -0.9324 0.3602 -0.0279
vn -0.9620 0.2725 0.0179
vn -0.0187 -0.9997 0.0128
vn 0.0001 -0.9999 0.0145
vn 0.0002 -0.9998 0.0213
vn 0.0119 -0.9992 0.0390
vn 0.0419 -0.9991 0.0111
vn 0.2416 -0.9693 -0.0451
vn -0.7074 0.7068 0.0038
vn 0.8461 0.5311 -0.0442
vn 0.7093 0.6826 -0.1758
vn 0.7218 0.6914 -0.0327
vn 0.7201 0.6262 -0.2988
vn 0.9987 -0.0513 -0.0039
vn 0.9983 -0.0535 -0.0227
vn 0.9994 0.0260 -0.0239
vn 0.9958 0.0910 0.0120
vn 0.9087 0.4163 -0.0316
vn 0.9154 0.4024 -0.0112
vn 0.6920 0.7102 -0.1294
vn 0.6728 0.6724 -0.3087
vn 0.6917 0.7214 -0.0331
vn 0.6023 -0.1925 -0.7747
vn 0.7758 -0.2376 -0.5845
vn 0.9801 -0.0810 -0.1813
vn 0.9520 -0.2678 -0.1484
vn 0.7598 0.6488 -0.0416
vn 0.8393 -0.5296 -0.1228
vn 0.7997 -0.5752 0.1721
vn 0.6945 0.6960 -0.1823
vn 0.8069 -0.4304 0.4045
vn 0.8273 0.4147 -0.3790
vn 0.7241 -0.2301 0.6502
vn 0.8468 0.2117 -0.4879
vn 0.9515 0.0893 -0.2943
vn 0.7149 -0.4709 0.5169
vn 0.8937 -0.2523 -0.3711
vn 0.6956 0.4794 -0.5351
vn 0.6928 -0.5799 0.4286
vn 0.5752 -0.5882 -0.5684
vn 0.8649 0.4338 0.2525
vn 0.8833 -0.3306 0.3324
vn 0.8854 0.4607 -0.0616
vn 0.8906 -0.4468 0.0851
vn 0.8539 -0.5178 -0.0524
vn 0.8127 -0.5688 -0.1264
vn 0.8644 -0.4626 -0.1970
vn 0.5225 0.5799 0.6250
vn 0.5433 0.4890 0.6824
vn 0.4810 0.7817 0.3969
vn 0.4825 0.7826 0.3932
vn 0.5802 0.2592 0.7721
vn 0.5719 0.2467 0.7823
vn 0.8488 -0.5285 -0.0144
vn 0.7592 -0.6507 -0.0116
vn 0.7653 -0.5321 -0.3621
vn 0.4320 0.8006 0.4153
vn 0.4202 0.8021 0.4244
vn 0.8448 -0.5349 0.0114
vn 0.7618 -0.6474 0.0202
vn 0.4197 0.8045 0.4203
vn 0.8354 0.5288 0.1500
vn 0.3975 0.8837 0.2472
vn 0.7303 0.6608 0.1731
vn 0.7051 -0.6615 0.2553
vn 0.8581 -0.4647 0.2183
vn 0.7031 -0.3677 0.6086
vn 0.8012 -0.3938 0.4506
vn 0.3128 0.9486 0.0484
vn 0.7044 0.7093 0.0266
vn 0.8274 -0.2011 0.5244
vn 0.6673 -0.2119 0.7140
vn 0.1474 -0.9891 -0.0036
vn 0.1495 -0.9888 -0.0025
vn 0.1538 -0.9881 -0.0030
vn 0.1573 -0.9876 -0.0007
vn 0.3157 0.9487 -0.0151
vn 0.3210 0.9347 -0.1530
vn 0.4296 0.8065 -0.4062
vn 0.0985 -0.9951 -0.0051
vn 0.1491 -0.9887 -0.0138
vn 0.3073 0.8094 -0.5005
vn 0.1640 -0.9864 -0.0090
vn 0.1589 -0.9871 -0.0194
vn 0.7810 -0.1047 -0.6157
vn 0.8405 -0.1721 -0.5137
vn -0.0071 -0.5816 -0.8134
vn -0.0055 -0.7727 -0.6347
vn -0.0076 -0.5022 -0.8647
vn 0.4881 -0.7919 -0.3671
vn 0.8900 -0.3792 -0.2530
vn -0.0049 -0.8278 -0.5610
vn 0.3785 0.9216 -0.0857
vn 0.4215 0.9010 -0.1029
vn 0.6695 -0.7390 -0.0749
vn 0.7079 -0.6848 0.1730
vn 0.4351 0.7843 -0.4423
vn 0.6654 -0.5670 0.4855
vn 0.4924 0.4940 -0.7166
vn 0.6888 -0.2833 0.6673
vn 0.4533 0.2184 -0.8642
vn 0.3635 0.6109 -0.7034
vn 0.7778 0.1133 0.6182
vn 0.4833 0.4483 -0.7520
vn 0.5159 -0.5774 -0.6328
vn -0.8888 -0.4496 0.0886
vn 0.3537 -0.3646 -0.8614
vn 0.6730 -0.4972 -0.5476
vn 0.4382 0.5548 0.7072
vn 0.2745 0.9189 0.2833
vn 0.4777 -0.4540 0.7521
vn 0.7511 -0.5944 0.2874
vn 0.8926 -0.1464 -0.4264
vn 0.9181 0.0773 -0.3888
vn 0.3503 0.8825 -0.3139
vn 0.0551 0.9965 0.0624
vn 0.0525 0.9986 -0.0045
vn 0.0519 0.9874 -0.1493
vn 0.0544 0.9927 0.1074
vn 0.0701 0.8518 0.5192
vn 0.0694 0.8544 0.5149
vn 0.0745 0.8224 0.5640
vn 0.1007 0.3828 0.9183
vn 0.0752 0.6492 0.7569
vn 0.0755 0.3402 0.9373
vn 0.0611 -0.3318 0.9414
vn 0.0322 -0.6902 0.7229
vn 0.0171 -0.8171 0.5763
vn 0.0501 0.9593 -0.2781
vn 0.0396 0.7457 -0.6651
vn 0.0291 0.7779 -0.6278
vn 0.0263 0.8003 -0.5991
vn 0.0213 0.9876 -0.1556
vn 0.0222 0.9749 -0.2217
vn 0.0213 0.9908 -0.1338
vn 0.0216 0.9872 -0.1577
vn 0.0515 0.4434 -0.8948
vn 0.0483 0.6094 -0.7914
vn 0.0531 0.1589 -0.9859
vn 0.0411 0.6485 -0.7601
vn 0.0444 0.4988 -0.8656
vn 0.0527 -0.2099 -0.9763
vn 0.0323 -0.4043 -0.9140
vn -0.0188 -0.2943 -0.9555
vn 0.9113 0.4114 -0.0161
vn 0.9622 0.2725 0.0011
vn 0.0189 -0.9997 0.0125
vn -0.0113 -0.9992 0.0392
vn -0.0417 -0.9991 0.0118
vn -0.2424 -0.9693 -0.0408
vn 0.6718 0.7407 -0.0081
vn -0.9999 -0.0000 0.0150
vn -0.0043 0.5007 -0.8656
vn -0.0050 0.2589 -0.9659
vn -0.0048 0.2586 -0.9660
vn -0.0042 0.4991 -0.8665
vn -0.0035 0.7071 -0.7071
vn 0.0045 0.4993 0.8664
vn 0.0036 0.7071 0.7071
vn 0.0045 0.5007 0.8656
vn 0.0050 0.2589 0.9659
vn 0.0045 -0.4993 0.8664
vn 0.0050 -0.2589 0.9659
vn 0.0045 -0.5007 0.8656
vn 0.0026 -0.8653 0.5012
vn 0.0026 -0.8667 0.4988
vn -0.0000 -1.0000 0.0016
vn -0.0000 -1.0000 -0.0016
vn -0.0025 -0.8667 -0.4987
vn -0.0024 -0.8653 -0.5012
vn -0.0042 -0.5007 -0.8656
vn -0.0043 -0.4991 -0.8665
vn -0.0048 -0.2587 -0.9659
vn -0.0050 -0.2584 -0.9660
vn 0.9999 -0.0000 -0.0150
vn -0.0043 0.5008 -0.8656
vn -0.0047 0.2589 -0.9659
vn -0.0049 0.2592 -0.9658
vn -0.0044 0.4995 -0.8663
vn -0.0036 0.7071 -0.7071
vn 0.0044 0.4993 0.8664
vn 0.0043 0.5006 0.8657
vn 0.0049 0.2588 0.9659
vn 0.0047 0.2585 0.9660
vn 0.0043 -0.4993 0.8664
vn 0.0047 -0.2589 0.9659
vn 0.0049 -0.2586 0.9660
vn 0.0044 -0.5005 0.8657
vn 0.0025 -0.8667 0.4988
vn -0.0000 -1.0000 0.0017
vn -0.0000 -1.0000 -0.0018
vn -0.0025 -0.8667 -0.4988
vn -0.0026 -0.8653 -0.5013
vn -0.0044 -0.5007 -0.8656
vn -0.0043 -0.4995 -0.8663
vn -0.0049 -0.2591 -0.9659
vn -0.0047 -0.2594 -0.9658
vn -0.0045 0.4993 -0.8664
vn -0.0044 0.5008 -0.8656
vn -0.0035 0.7073 -0.7069
vn 0.0044 0.4994 0.8663
vn 0.0049 0.2590 0.9659
vn 0.0047 0.2593 0.9658
vn 0.0044 -0.5008 0.8656
vn 0.0049 -0.2592 0.9658
vn 0.0045 -0.4995 0.8663
vn -0.0025 -0.8653 -0.5013
vn -0.0025 -0.8668 -0.4987
vn -0.0044 -0.4993 -0.8664
vn -0.0045 -0.5008 -0.8655
vn -0.0050 -0.2589 -0.9659
vn -0.0049 0.2589 -0.9659
vn -0.0045 0.5008 -0.8656
vn -0.0037 0.7073 -0.7069
vn -0.0038 0.7071 -0.7071
vn 0.0044 0.5005 0.8657
vn 0.0044 0.4991 0.8665
vn 0.0049 0.2585 0.9660
vn 0.0049 -0.2585 0.9660
vn 0.0044 -0.4991 0.8665
vn 0.0025 -0.8668 0.4987
vn -0.0027 -0.8654 -0.5011
vn -0.0026 -0.8667 -0.4988
vn -0.0045 -0.4994 -0.8664
vn -0.0049 -0.2589 -0.9659
vn -0.8986 0.4380 -0.0263
vn 0.8949 0.4462 -0.0041
vt 0.684191 0.268064
vt 0.139275 0.358508
vt 0.182478 0.642545
vt 0.693649 0.534038
vt 0.773557 -0.028271
vt 0.158667 0.064728
vt 0.226443 1.028271
vt 0.684026 0.927171
vt 0.140640 0.358269
vt 0.687744 0.267598
vt 0.187725 0.641902
vt 0.699955 0.533284
vt 0.158946 0.064602
vt 0.773937 -0.028407
vt 0.226068 1.028405
vt 0.683594 0.926256
vt 0.532513 0.474510
vt 0.372865 0.329177
vt 0.379477 0.477538
vt 0.563831 0.454259
vt 0.687445 0.123090
vt 0.357750 0.130776
vt 0.351137 0.204266
vt 0.690279 0.210052
vt 0.373694 0.293825
vt 0.676109 0.307140
vt 0.660049 0.339304
vt 0.647768 0.359556
vt 0.683919 0.329766
vt 0.761131 0.163593
vt 0.758297 0.123090
vt 0.778135 0.200522
vt 0.807420 0.225538
vt 0.799786 0.312749
vt 0.845208 0.236259
vt 0.882995 0.230303
vt 0.921996 0.296837
vt 0.915115 0.212434
vt 0.942942 0.270196
vt 0.925506 0.190992
vt 0.952830 0.241587
vt 0.954617 0.212905
vt 0.963755 0.171236
vt 0.934008 0.146915
vt 0.974859 0.206830
vt 0.956283 0.144070
vt 0.937879 0.093358
vt 0.034082 0.162107
vt 0.035509 0.267684
vt 0.051797 0.274927
vt 0.049638 0.146423
vt 0.075206 0.135649
vt 0.079067 0.156616
vt 0.093237 0.181632
vt 0.122523 0.182823
vt 0.093238 0.181632
vt 0.165034 0.181632
vt 0.183882 0.451267
vt 0.176643 0.461230
vt 0.195777 0.476050
vt 0.201429 0.464494
vt 0.207545 0.178058
vt 0.226438 0.153042
vt 0.281210 0.488862
vt 0.282175 0.476347
vt 0.232192 0.130870
vt 0.233538 0.115350
vt 0.558124 0.522535
vt 0.558124 0.547727
vt 0.535305 0.547419
vt 0.536216 0.522535
vt 0.379458 0.490314
vt 0.532236 0.486401
vt 0.565313 0.474489
vt 0.618327 0.516919
vt 0.618479 0.543467
vt 0.661709 0.360767
vt 0.631265 0.520187
vt 0.632346 0.545071
vt 0.764214 0.107363
vt 0.693559 0.342960
vt 0.810602 0.326566
vt 0.942349 0.299882
vt 0.958181 0.273284
vt 0.965753 0.241815
vt 0.966403 0.214927
vt 0.985460 0.206571
vt 0.981881 0.166161
vt 0.958915 0.097010
vt 0.970557 0.130492
vt 0.019510 0.270401
vt 0.032550 0.280327
vt 0.025798 0.151961
vt 0.047927 0.130061
vt 0.071510 0.115096
vt 0.673894 0.348858
vt 0.569638 0.725411
vt 0.516546 0.725411
vt 0.512700 0.832127
vt 0.567384 0.832127
vt 0.650967 0.733301
vt 0.651153 0.832127
vt 0.470379 0.718655
vt 0.464769 0.832127
vt 0.917315 0.633427
vt 0.919160 0.622380
vt 0.825579 0.630096
vt 0.825685 0.640170
vt 0.944253 0.568191
vt 0.825010 0.573392
vt 0.955457 0.528222
vt 0.824759 0.533445
vt 0.955475 0.488262
vt 0.824777 0.491017
vt 0.961117 0.480862
vt 0.824705 0.487442
vt 0.961171 0.393868
vt 0.824761 0.399714
vt 0.956066 0.377954
vt 0.824882 0.384421
vt 0.953228 0.367147
vt 0.825010 0.369813
vt 0.668908 0.733301
vt 0.669632 0.832127
vt 0.397828 0.815801
vt 0.350019 0.960182
vt 0.227245 0.970104
vt 0.227245 0.821392
vt 0.227245 0.807494
vt 0.406231 0.802308
vt 0.742213 0.832127
vt 0.739375 0.680904
vt 0.728748 0.688054
vt 0.731267 0.832127
vt 0.807359 0.832127
vt 0.802623 0.671727
vt 0.880689 0.832127
vt 0.873818 0.667079
vt 0.227245 0.735286
vt 0.438719 0.732203
vt 0.432290 0.762340
vt 0.227245 0.766327
vt 0.227245 0.698562
vt 0.441969 0.696548
vt 0.227245 0.667183
vt 0.443948 0.666083
vt 0.227245 0.657431
vt 0.449779 0.656616
vt 0.227245 0.610271
vt 0.446697 0.610829
vt 0.227245 0.568645
vt 0.407611 0.570415
vt 0.227245 0.525036
vt 0.417242 0.532479
vt 0.101732 0.378181
vt 0.667899 0.533759
vt 0.667225 0.599165
vt 0.503407 0.599165
vt 0.505855 0.531256
vt 0.369285 0.329177
vt 0.529683 0.474510
vt 0.376622 0.477538
vt 0.560857 0.454259
vt 0.353724 0.130776
vt 0.346753 0.204266
vt 0.690279 0.210051
vt 0.369653 0.293825
vt 0.778135 0.200521
vt 0.925506 0.190991
vt 0.963756 0.171236
vt 0.031580 0.267684
vt 0.047573 0.274927
vt 0.173932 0.461266
vt 0.180760 0.451106
vt 0.193193 0.476151
vt 0.198367 0.464505
vt 0.278905 0.488514
vt 0.279057 0.476199
vt 0.558124 0.650603
vt 0.558124 0.675795
vt 0.535305 0.650911
vt 0.536216 0.675795
vt 0.377010 0.490314
vt 0.529958 0.486607
vt 0.563159 0.474495
vt 0.618479 0.654863
vt 0.618327 0.681411
vt 0.632346 0.653259
vt 0.631265 0.678142
vt 0.015556 0.270401
vt 0.028808 0.280327
vt 0.516546 0.938843
vt 0.569638 0.938843
vt 0.650967 0.930952
vt 0.470379 0.945599
vt 0.732107 0.622406
vt 0.734165 0.633502
vt 0.705910 0.568191
vt 0.694218 0.528222
vt 0.694236 0.488262
vt 0.688453 0.480861
vt 0.688507 0.393900
vt 0.693847 0.377984
vt 0.696935 0.367176
vt 0.668908 0.930952
vt 0.104471 0.960182
vt 0.056662 0.815801
vt 0.048258 0.802308
vt 0.739375 0.983350
vt 0.728748 0.976199
vt 0.802623 0.992526
vt 0.873818 0.997174
vt 0.015770 0.732203
vt 0.022200 0.762340
vt 0.012520 0.696548
vt 0.010542 0.666083
vt 0.004711 0.656616
vt 0.007793 0.610829
vt 0.046879 0.570415
vt 0.037248 0.532479
vt 0.097922 0.378181
vt 0.667899 0.664571
vt 0.505855 0.667074
vt 0.922377 0.170470
vt 0.933565 0.117820
vt 0.850054 0.117820
vt 0.891810 0.209013
vt 0.850054 0.223121
vt 0.808299 0.209013
vt 0.777732 0.170470
vt 0.766544 0.117820
vt 0.777732 0.065169
vt 0.808299 0.026626
vt 0.850054 0.012518
vt 0.891810 0.026626
vt 0.922377 0.065169
vt 0.661200 0.676281
vt 0.663243 0.676281
vt 0.663243 0.660928
vt 0.661200 0.660928
vt 0.655619 0.676281
vt 0.655619 0.660928
vt 0.634789 0.676281
vt 0.640370 0.676281
vt 0.640370 0.660928
vt 0.634789 0.660928
vt 0.632746 0.676281
vt 0.632746 0.660928
vt 0.647995 0.676281
vt 0.647995 0.660928
vt 0.933282 0.117820
vt 0.922094 0.170470
vt 0.849771 0.117820
vt 0.891527 0.209013
vt 0.849771 0.223121
vt 0.808016 0.209013
vt 0.777449 0.170470
vt 0.766261 0.117820
vt 0.777449 0.065169
vt 0.808016 0.026626
vt 0.849771 0.012518
vt 0.891527 0.026626
vt 0.922094 0.065169
vt 0.919062 0.158359
vt 0.929551 0.108999
vt 0.851260 0.108999
vt 0.890405 0.194493
vt 0.851260 0.207719
vt 0.812114 0.194493
vt 0.783458 0.158359
vt 0.772969 0.108999
vt 0.783458 0.059639
vt 0.812114 0.023505
vt 0.851260 0.010279
vt 0.890405 0.023505
vt 0.919062 0.059639
vt 0.533019 0.671654
vt 0.534935 0.671654
vt 0.534935 0.656300
vt 0.533019 0.656300
vt 0.527787 0.671654
vt 0.527787 0.656300
vt 0.508259 0.671654
vt 0.513492 0.671654
vt 0.513492 0.656300
vt 0.508259 0.656300
vt 0.506344 0.671654
vt 0.506344 0.656300
vt 0.520639 0.671654
vt 0.520639 0.656300
vt 0.929251 0.108999
vt 0.918762 0.158359
vt 0.850960 0.108999
vt 0.890105 0.194493
vt 0.850960 0.207719
vt 0.811814 0.194493
vt 0.783158 0.158359
vt 0.772669 0.108999
vt 0.783158 0.059639
vt 0.811814 0.023505
vt 0.850960 0.010279
vt 0.890105 0.023505
vt 0.918762 0.059639
vt 0.663243 0.522048
vt 0.661200 0.522048
vt 0.663243 0.537402
vt 0.661200 0.537402
vt 0.655619 0.522048
vt 0.655619 0.537402
vt 0.640370 0.522048
vt 0.634789 0.522048
vt 0.640370 0.537402
vt 0.634789 0.537402
vt 0.632746 0.522048
vt 0.632746 0.537402
vt 0.647995 0.522048
vt 0.647995 0.537402
vt 0.922376 0.170470
vt 0.891809 0.209013
vt 0.891809 0.026626
vt 0.922376 0.065169
vt 0.534935 0.526676
vt 0.533019 0.526676
vt 0.534935 0.542029
vt 0.533019 0.542029
vt 0.527787 0.526676
vt 0.527787 0.542029
vt 0.513491 0.526676
vt 0.508259 0.526676
vt 0.513491 0.542029
vt 0.508259 0.542029
vt 0.506344 0.526676
vt 0.506344 0.542029
vt 0.520639 0.526676
vt 0.520639 0.542029
vt 0.048206 0.328424
vt 0.043854 0.328424
s 1
usemtl AutoPlayerStop
f 39/1/39 40/2/40 41/3/41
f 41/3/41 42/4/42 39/1/39
f 43/5/43 44/6/44 40/2/40
f 40/2/40 39/1/39 43/5/43
f 42/4/42 41/3/41 48/7/48
f 48/7/48 49/8/49 42/4/42
f 212/9/208 213/10/209 214/11/210
f 215/12/211 214/11/210 213/10/209
f 216/13/212 217/14/213 212/9/208
f 213/10/209 212/9/208 217/14/213
f 214/11/210 215/12/211 221/15/217
f 222/16/218 221/15/217 215/12/211
usemtl AutoPlayer
f 1/17/1 2/18/2 3/19/3
f 1/17/1 4/20/4 2/18/2
f 5/21/5 6/22/6 7/23/7
f 8/24/8 5/21/5 7/23/7
f 8/24/8 7/23/7 9/25/9
f 10/26/10 8/24/8 9/25/9
f 10/26/10 9/25/9 2/18/2
f 11/27/11 10/26/10 2/18/2
f 12/28/12 2/18/2 4/20/4
f 11/27/11 2/18/2 12/28/12
f 13/29/13 10/26/10 11/27/11
f 14/30/14 15/31/15 5/21/5
f 8/24/8 14/30/14 5/21/5
f 16/32/16 14/30/14 8/24/8
f 16/32/16 8/24/8 10/26/10
f 17/33/17 16/32/16 10/26/10
f 17/33/17 10/26/10 13/29/13
f 18/34/18 17/33/17 13/29/13
f 19/35/19 17/33/17 18/34/18
f 20/36/20 19/35/19 18/34/18
f 21/37/21 20/36/20 18/34/18
f 22/38/22 20/36/20 21/37/21
f 23/39/23 22/38/22 21/37/21
f 24/40/24 22/38/22 23/39/23
f 25/41/25 24/40/24 23/39/23
f 26/42/26 24/40/24 25/41/25
f 27/43/27 28/44/28 24/40/24
f 29/45/29 27/43/27 24/40/24
f 26/42/26 29/45/29 24/40/24
f 30/46/30 31/47/31 28/44/28
f 27/43/27 30/46/30 28/44/28
f 32/48/32 33/49/33 34/50/34
f 35/51/35 32/48/32 34/50/34
f 36/52/36 35/51/35 34/50/34
f 37/53/37 36/52/36 34/50/34
f 38/54/38 37/53/37 34/50/34
f 45/55/45 46/55/46 47/56/47
f 47/56/47 38/54/38 45/55/45
f 50/57/50 51/57/51 46/55/46
f 46/55/46 45/55/45 50/57/50
f 52/58/52 53/59/53 54/60/54
f 54/60/54 55/61/55 52/58/52
f 56/62/56 57/62/57 51/57/51
f 51/57/51 50/57/50 56/62/56
f 58/63/58 59/63/59 57/62/57
f 57/62/57 56/62/56 58/63/58
f 55/61/55 54/60/54 60/64/60
f 60/64/60 61/65/61 55/61/55
f 62/66/62 63/67/63 59/63/59
f 59/63/59 58/63/58 62/66/62
f 64/68/64 65/69/65 66/70/66
f 66/70/66 67/71/67 64/68/64
f 61/65/61 60/64/60 68/72/68
f 68/72/68 3/19/3 61/65/61
f 3/19/3 68/72/68 69/73/69
f 69/73/69 1/17/1 3/19/3
f 1/17/1 69/73/69 70/74/70
f 4/20/4 1/17/1 70/74/70
f 71/75/71 72/76/72 65/69/65
f 65/69/65 64/68/64 71/75/71
f 4/20/4 70/74/70 73/77/73
f 73/77/73 12/28/12 4/20/4
f 74/78/74 75/79/75 72/76/72
f 72/76/72 71/75/71 74/78/74
f 14/30/14 76/30/76 77/80/77
f 77/80/77 15/31/15 14/30/14
f 16/32/16 78/32/78 76/30/76
f 76/30/76 14/30/14 16/32/16
f 17/33/17 79/33/79 78/32/78
f 78/32/78 16/32/16 17/33/17
f 13/29/13 80/81/80 81/82/81
f 81/82/81 18/34/18 13/29/13
f 19/35/19 82/35/82 79/33/79
f 79/33/79 17/33/17 19/35/19
f 20/36/20 83/36/83 82/35/82
f 82/35/82 19/35/19 20/36/20
f 18/34/18 81/82/81 84/83/84
f 84/83/84 21/37/21 18/34/18
f 22/38/22 85/38/85 83/36/83
f 83/36/83 20/36/20 22/38/22
f 21/37/21 84/83/84 86/84/86
f 86/84/86 23/39/23 21/37/21
f 24/40/24 87/40/87 85/38/85
f 85/38/85 22/38/22 24/40/24
f 23/39/23 86/84/86 88/85/88
f 88/85/88 25/41/25 23/39/23
f 25/41/25 88/85/88 89/86/89
f 89/86/89 26/42/26 25/41/25
f 28/44/28 90/44/90 87/40/87
f 87/40/87 24/40/24 28/44/28
f 29/45/29 91/87/91 92/88/92
f 92/88/92 27/43/27 29/45/29
f 26/42/26 89/86/89 91/87/91
f 91/87/91 29/45/29 26/42/26
f 93/47/93 94/89/93 95/44/93
f 90/44/90 28/44/28 31/47/31
f 30/46/30 96/90/94 97/89/95
f 97/89/95 31/47/31 30/46/30
f 27/43/27 92/88/92 96/90/94
f 96/90/94 30/46/30 27/43/27
f 33/49/33 98/91/96 99/92/97
f 99/92/97 34/50/34 33/49/33
f 32/48/32 100/93/98 98/91/96
f 98/91/96 33/49/33 32/48/32
f 35/51/35 101/94/99 100/93/98
f 100/93/98 32/48/32 35/51/35
f 36/52/36 102/95/100 101/94/99
f 101/94/99 35/51/35 36/52/36
f 37/53/37 103/53/101 102/95/100
f 102/95/100 36/52/36 37/53/37
f 38/54/38 47/56/47 103/53/101
f 103/53/101 37/53/37 38/54/38
f 104/96/102 11/27/11 12/28/12
f 73/77/73 104/96/102 12/28/12
f 80/81/80 13/29/13 11/27/11
f 104/96/102 80/81/80 11/27/11
f 105/97/103 106/98/104 107/99/105
f 108/100/106 105/97/103 107/99/105
f 109/101/107 105/97/103 108/100/106
f 110/102/108 109/101/107 108/100/106
f 106/98/104 111/103/109 112/104/110
f 107/99/105 106/98/104 112/104/110
f 113/105/111 114/106/112 115/107/113
f 116/108/114 113/105/111 115/107/113
f 114/106/112 117/109/115 118/110/116
f 115/107/113 114/106/112 118/110/116
f 119/111/117 120/112/118 118/110/116
f 117/109/115 119/111/117 118/110/116
f 121/113/119 122/114/120 120/112/118
f 119/111/117 121/113/119 120/112/118
f 123/115/121 124/116/122 122/114/120
f 121/113/119 123/115/121 122/114/120
f 125/117/123 126/118/124 124/116/122
f 123/115/121 125/117/123 124/116/122
f 127/119/125 128/120/126 126/118/124
f 125/117/123 127/119/125 126/118/124
f 129/121/127 130/122/128 128/120/126
f 127/119/125 129/121/127 128/120/126
f 131/123/129 109/101/107 110/102/108
f 132/124/130 131/123/129 110/102/108
f 133/125/131 134/126/132 135/127/133
f 136/128/134 133/125/131 135/127/133
f 137/129/135 138/130/136 133/125/131
f 136/128/134 137/129/135 133/125/131
f 139/131/137 140/132/138 141/133/139
f 142/134/140 139/131/137 141/133/139
f 143/135/141 144/136/142 140/132/138
f 139/131/137 143/135/141 140/132/138
f 145/137/143 146/138/144 144/136/142
f 143/135/141 145/137/143 144/136/142
f 147/139/145 148/140/146 149/141/147
f 150/142/148 147/139/145 149/141/147
f 151/143/149 152/144/150 148/140/146
f 147/139/145 151/143/149 148/140/146
f 153/145/151 154/146/152 152/144/150
f 151/143/149 153/145/151 152/144/150
f 155/147/153 156/148/154 154/146/152
f 153/145/151 155/147/153 154/146/152
f 157/149/155 158/150/156 156/148/154
f 155/147/153 157/149/155 156/148/154
f 159/151/157 160/152/158 158/150/156
f 157/149/155 159/151/157 158/150/156
f 161/153/159 162/154/160 160/152/158
f 159/151/157 161/153/159 160/152/158
f 55/61/55 2/18/2 52/58/52
f 61/65/61 2/18/2 55/61/55
f 3/19/3 2/18/2 61/65/61
f 2/18/2 163/155/161 52/58/52
f 62/66/62 58/63/58 7/23/7
f 6/22/6 62/66/62 7/23/7
f 58/63/58 56/62/56 7/23/7
f 164/89/162 77/80/77 76/30/76
f 90/44/90 164/89/162 76/30/76
f 87/40/87 90/44/90 76/30/76
f 78/32/78 87/40/87 76/30/76
f 85/38/85 87/40/87 78/32/78
f 83/36/83 85/38/85 78/32/78
f 82/35/82 83/36/83 78/32/78
f 79/33/79 82/35/82 78/32/78
f 59/63/59 63/67/63 102/95/100
f 57/62/57 59/63/59 102/95/100
f 51/57/51 57/62/57 102/95/100
f 46/55/46 51/57/51 102/95/100
f 47/56/47 46/55/46 102/95/100
f 103/53/101 47/56/47 102/95/100
f 165/156/163 166/157/164 167/158/165
f 65/69/65 72/76/72 75/79/75
f 167/158/165 168/159/166 169/70/167
f 170/79/168 165/156/163 167/158/165
f 171/70/169 172/69/169 173/79/169
f 167/158/165 169/70/167 170/79/168
f 174/160/170 175/161/171 176/162/172
f 177/163/173 175/161/171 174/160/170
f 178/164/174 179/21/175 180/165/176
f 179/21/175 181/166/177 180/165/176
f 180/165/176 181/166/177 182/167/178
f 181/166/177 183/26/179 182/167/178
f 182/167/178 183/26/179 174/160/170
f 183/26/179 184/27/180 174/160/170
f 174/160/170 185/28/181 177/163/173
f 174/160/170 184/27/180 185/28/181
f 183/26/179 186/29/182 184/27/180
f 187/31/183 188/30/184 179/21/175
f 188/30/184 181/166/177 179/21/175
f 188/30/184 189/168/185 181/166/177
f 181/166/177 189/168/185 183/26/179
f 189/168/185 190/33/186 183/26/179
f 183/26/179 190/33/186 186/29/182
f 190/33/186 191/34/187 186/29/182
f 190/33/186 192/35/188 191/34/187
f 192/35/188 193/36/189 191/34/187
f 193/36/189 194/37/190 191/34/187
f 193/36/189 195/38/191 194/37/190
f 195/38/191 196/39/192 194/37/190
f 195/38/191 197/169/193 196/39/192
f 197/169/193 198/41/194 196/39/192
f 197/169/193 199/42/195 198/41/194
f 200/44/196 201/170/197 197/169/193
f 201/170/197 202/45/198 197/169/193
f 202/45/198 199/42/195 197/169/193
f 203/47/199 204/46/200 200/44/196
f 204/46/200 201/170/197 200/44/196
f 205/171/201 206/48/202 207/172/203
f 206/48/202 208/51/204 207/172/203
f 208/51/204 209/52/205 207/172/203
f 209/52/205 210/53/206 207/172/203
f 210/53/206 211/56/207 207/172/203
f 218/55/214 219/55/215 220/56/216
f 211/56/207 220/56/216 219/55/215
f 223/57/219 224/57/220 218/55/214
f 219/55/215 218/55/214 224/57/220
f 225/173/221 226/174/222 227/175/223
f 228/176/224 227/175/223 226/174/222
f 229/62/225 230/62/226 223/57/219
f 224/57/220 223/57/219 230/62/226
f 231/63/227 232/63/228 229/62/225
f 230/62/226 229/62/225 232/63/228
f 227/175/223 228/176/224 233/177/229
f 234/178/230 233/177/229 228/176/224
f 235/67/231 236/66/232 231/63/227
f 232/63/228 231/63/227 236/66/232
f 237/179/233 238/180/234 239/181/235
f 240/182/236 239/181/235 238/180/234
f 233/177/229 234/178/230 241/183/237
f 176/162/172 241/183/237 234/178/230
f 241/183/237 176/162/172 242/184/238
f 175/161/171 242/184/238 176/162/172
f 242/184/238 175/161/171 243/185/239
f 177/163/173 243/185/239 175/161/171
f 244/186/240 245/187/241 237/179/233
f 238/180/234 237/179/233 245/187/241
f 243/185/239 177/163/173 246/77/242
f 185/28/181 246/77/242 177/163/173
f 247/188/243 248/189/244 244/186/240
f 245/187/241 244/186/240 248/189/244
f 249/30/245 188/30/184 250/80/246
f 187/31/183 250/80/246 188/30/184
f 251/32/247 252/168/248 253/30/249
f 188/30/184 249/30/245 189/168/185
f 254/33/250 190/33/186 255/32/251
f 252/168/248 251/32/247 256/33/252
f 257/81/253 186/29/182 258/82/254
f 191/34/187 258/82/254 186/29/182
f 259/35/255 192/35/188 254/33/250
f 190/33/186 254/33/250 192/35/188
f 260/36/256 193/36/189 259/35/255
f 192/35/188 259/35/255 193/36/189
f 258/82/254 191/34/187 261/83/257
f 194/37/190 261/83/257 191/34/187
f 262/38/258 195/38/191 260/36/256
f 193/36/189 260/36/256 195/38/191
f 261/83/257 194/37/190 263/84/259
f 196/39/192 263/84/259 194/37/190
f 264/169/260 197/169/193 262/38/258
f 195/38/191 262/38/258 197/169/193
f 263/84/259 196/39/192 265/85/261
f 198/41/194 265/85/261 196/39/192
f 265/85/261 198/41/194 266/86/262
f 199/42/195 266/86/262 198/41/194
f 267/44/263 200/44/196 264/169/260
f 197/169/193 264/169/260 200/44/196
f 268/87/264 202/45/198 269/88/265
f 201/170/197 269/88/265 202/45/198
f 266/86/262 199/42/195 268/87/264
f 202/45/198 268/87/264 199/42/195
f 270/89/266 271/47/266 272/44/266
f 200/44/196 267/44/263 203/47/199
f 273/90/267 204/46/200 274/89/268
f 203/47/199 274/89/268 204/46/200
f 269/88/265 201/170/197 273/90/267
f 204/46/200 273/90/267 201/170/197
f 275/190/269 205/171/201 276/191/270
f 207/172/203 276/191/270 205/171/201
f 277/93/271 206/48/202 275/190/269
f 205/171/201 275/190/269 206/48/202
f 278/94/272 208/51/204 277/93/271
f 206/48/202 277/93/271 208/51/204
f 279/95/273 209/52/205 278/94/272
f 208/51/204 278/94/272 209/52/205
f 280/53/274 210/53/206 279/95/273
f 209/52/205 279/95/273 210/53/206
f 220/56/216 211/56/207 280/53/274
f 210/53/206 280/53/274 211/56/207
f 184/27/180 281/96/275 185/28/181
f 281/96/275 246/77/242 185/28/181
f 186/29/182 257/81/253 184/27/180
f 257/81/253 281/96/275 184/27/180
f 282/192/276 283/193/277 107/99/105
f 283/193/277 108/100/106 107/99/105
f 283/193/277 284/194/278 108/100/106
f 284/194/278 110/102/108 108/100/106
f 285/195/279 282/192/276 112/104/110
f 282/192/276 107/99/105 112/104/110
f 286/196/280 287/197/281 115/107/113
f 287/197/281 116/108/114 115/107/113
f 288/198/282 286/196/280 118/110/116
f 286/196/280 115/107/113 118/110/116
f 120/112/118 289/199/283 118/110/116
f 289/199/283 288/198/282 118/110/116
f 122/114/120 290/200/284 120/112/118
f 290/200/284 289/199/283 120/112/118
f 124/116/122 291/201/285 122/114/120
f 291/201/285 290/200/284 122/114/120
f 126/118/124 292/202/286 124/116/122
f 292/202/286 291/201/285 124/116/122
f 128/120/126 293/203/287 126/118/124
f 293/203/287 292/202/286 126/118/124
f 130/122/128 294/204/288 128/120/126
f 294/204/288 293/203/287 128/120/126
f 284/194/278 295/205/289 110/102/108
f 295/205/289 132/124/130 110/102/108
f 296/206/290 297/207/291 135/127/133
f 297/207/291 136/128/134 135/127/133
f 298/208/292 137/129/135 297/207/291
f 137/129/135 136/128/134 297/207/291
f 299/209/293 139/131/137 300/210/294
f 139/131/137 142/134/140 300/210/294
f 301/211/295 143/135/141 299/209/293
f 143/135/141 139/131/137 299/209/293
f 302/212/296 145/137/143 301/211/295
f 145/137/143 143/135/141 301/211/295
f 303/213/297 147/139/145 304/214/298
f 147/139/145 150/142/148 304/214/298
f 305/215/299 151/143/149 303/213/297
f 151/143/149 147/139/145 303/213/297
f 306/216/300 153/145/151 305/215/299
f 153/145/151 151/143/149 305/215/299
f 307/217/301 155/147/153 306/216/300
f 155/147/153 153/145/151 306/216/300
f 308/218/302 157/149/155 307/217/301
f 157/149/155 155/147/153 307/217/301
f 309/219/303 159/151/157 308/218/302
f 159/151/157 157/149/155 308/218/302
f 310/220/304 161/153/159 309/219/303
f 161/153/159 159/151/157 309/219/303
f 174/160/170 228/176/224 226/174/222
f 174/160/170 234/178/230 228/176/224
f 174/160/170 176/162/172 234/178/230
f 311/221/305 174/160/170 226/174/222
f 232/63/228 236/66/232 180/165/176
f 236/66/232 178/164/174 180/165/176
f 230/62/226 232/63/228 180/165/176
f 250/80/246 312/89/306 249/30/245
f 312/89/306 267/44/263 249/30/245
f 267/44/263 264/169/260 249/30/245
f 264/169/260 255/32/251 249/30/245
f 264/169/260 262/38/258 255/32/251
f 262/38/258 260/36/256 255/32/251
f 260/36/256 259/35/255 255/32/251
f 259/35/255 254/33/250 255/32/251
f 235/67/231 231/63/227 279/95/273
f 231/63/227 229/62/225 279/95/273
f 229/62/225 223/57/219 279/95/273
f 223/57/219 218/55/214 279/95/273
f 218/55/214 220/56/216 279/95/273
f 220/56/216 280/53/274 279/95/273
f 166/157/164 313/222/307 167/158/165
f 244/186/240 237/179/233 247/188/243
f 314/223/308 167/158/165 315/181/309
f 313/222/307 316/188/310 167/158/165
f 317/179/311 318/181/311 319/188/311
f 315/181/309 167/158/165 316/188/310
f 320/224/312 321/225/312 322/226/312
f 323/227/312 320/224/312 322/226/312
f 324/228/312 323/227/312 322/226/312
f 325/229/312 324/228/312 322/226/312
f 326/230/312 325/229/312 322/226/312
f 327/231/312 326/230/312 322/226/312
f 328/232/312 327/231/312 322/226/312
f 329/233/312 328/232/312 322/226/312
f 330/234/312 329/233/312 322/226/312
f 331/235/312 330/234/312 322/226/312
f 332/236/312 331/235/312 322/226/312
f 321/225/312 332/236/312 322/226/312
f 333/237/313 334/238/314 335/239/315
f 336/240/316 333/237/313 335/239/315
f 337/241/317 333/237/313 336/240/316
f 338/242/317 337/241/317 336/240/316
f 339/243/318 340/244/319 341/245/319
f 342/246/320 339/243/318 341/245/319
f 343/247/321 339/243/318 342/246/320
f 344/248/321 343/247/321 342/246/320
f 345/243/322 346/247/323 347/248/323
f 348/246/324 345/243/322 347/248/323
f 349/244/325 345/243/322 348/246/324
f 350/245/326 349/244/325 348/246/324
f 351/249/327 349/244/325 350/245/326
f 352/250/328 351/249/327 350/245/326
f 353/241/329 351/249/327 352/250/328
f 354/242/330 353/241/329 352/250/328
f 355/237/331 353/241/329 354/242/330
f 356/240/332 355/237/331 354/242/330
f 357/238/333 355/237/331 356/240/332
f 358/239/334 357/238/333 356/240/332
f 359/251/335 360/252/335 361/253/335
f 360/252/335 362/254/335 361/253/335
f 362/254/335 363/255/335 361/253/335
f 363/255/335 364/256/335 361/253/335
f 364/256/335 365/257/335 361/253/335
f 365/257/335 366/258/335 361/253/335
f 366/258/335 367/259/335 361/253/335
f 367/259/335 368/260/335 361/253/335
f 368/260/335 369/261/335 361/253/335
f 369/261/335 370/262/335 361/253/335
f 370/262/335 371/263/335 361/253/335
f 371/263/335 359/251/335 361/253/335
f 372/264/312 373/265/312 374/266/312
f 375/267/312 372/264/312 374/266/312
f 376/268/312 375/267/312 374/266/312
f 377/269/312 376/268/312 374/266/312
f 378/270/312 377/269/312 374/266/312
f 379/271/312 378/270/312 374/266/312
f 380/272/312 379/271/312 374/266/312
f 381/273/312 380/272/312 374/266/312
f 382/274/312 381/273/312 374/266/312
f 383/275/312 382/274/312 374/266/312
f 384/276/312 383/275/312 374/266/312
f 373/265/312 384/276/312 374/266/312
f 385/277/336 386/278/337 387/279/338
f 388/280/339 385/277/336 387/279/338
f 389/281/340 385/277/336 388/280/339
f 390/282/340 389/281/340 388/280/339
f 391/283/341 392/284/319 393/285/319
f 394/286/342 391/283/341 393/285/319
f 395/287/343 391/283/341 394/286/342
f 396/288/344 395/287/343 394/286/342
f 397/283/345 398/287/346 399/288/347
f 400/286/348 397/283/345 399/288/347
f 401/284/325 397/283/345 400/286/348
f 402/285/349 401/284/325 400/286/348
f 403/289/350 401/284/325 402/285/349
f 404/290/351 403/289/350 402/285/349
f 405/281/352 403/289/350 404/290/351
f 406/282/353 405/281/352 404/290/351
f 407/277/354 405/281/352 406/282/353
f 408/280/355 407/277/354 406/282/353
f 409/278/356 407/277/354 408/280/355
f 410/279/357 409/278/356 408/280/355
f 411/291/335 412/292/335 413/293/335
f 412/292/335 414/294/335 413/293/335
f 414/294/335 415/295/335 413/293/335
f 415/295/335 416/296/335 413/293/335
f 416/296/335 417/297/335 413/293/335
f 417/297/335 418/298/335 413/293/335
f 418/298/335 419/299/335 413/293/335
f 419/299/335 420/300/335 413/293/335
f 420/300/335 421/301/335 413/293/335
f 421/301/335 422/302/335 413/293/335
f 422/302/335 423/303/335 413/293/335
f 423/303/335 411/291/335 413/293/335
f 424/251/335 425/252/335 426/253/335
f 425/252/335 427/254/335 426/253/335
f 427/254/335 428/255/335 426/253/335
f 428/255/335 429/256/335 426/253/335
f 429/256/335 430/257/335 426/253/335
f 430/257/335 431/258/335 426/253/335
f 431/258/335 432/259/335 426/253/335
f 432/259/335 433/260/335 426/253/335
f 433/260/335 434/261/335 426/253/335
f 434/261/335 435/262/335 426/253/335
f 435/262/335 436/263/335 426/253/335
f 436/263/335 424/251/335 426/253/335
f 437/304/314 438/305/358 439/306/314
f 438/305/358 440/307/359 439/306/314
f 438/305/358 441/308/340 440/307/359
f 441/308/340 442/309/360 440/307/359
f 443/310/319 444/311/320 445/312/319
f 444/311/320 446/313/361 445/312/319
f 444/311/320 447/314/362 446/313/361
f 447/314/362 448/315/363 446/313/361
f 449/314/346 450/311/364 451/315/365
f 450/311/364 452/313/366 451/315/365
f 450/311/364 453/310/326 452/313/366
f 453/310/326 454/312/325 452/313/366
f 453/310/326 455/316/328 454/312/325
f 455/316/328 456/317/327 454/312/325
f 455/316/328 457/308/367 456/317/327
f 457/308/367 458/309/368 456/317/327
f 457/308/367 459/305/369 458/309/368
f 459/305/369 460/307/370 458/309/368
f 459/305/369 461/304/371 460/307/370
f 461/304/371 462/306/371 460/307/370
f 463/318/312 464/225/312 465/226/312
f 466/319/312 463/318/312 465/226/312
f 467/228/312 466/319/312 465/226/312
f 468/229/312 467/228/312 465/226/312
f 469/230/312 468/229/312 465/226/312
f 470/231/312 469/230/312 465/226/312
f 471/232/312 470/231/312 465/226/312
f 472/233/312 471/232/312 465/226/312
f 473/234/312 472/233/312 465/226/312
f 474/320/312 473/234/312 465/226/312
f 475/321/312 474/320/312 465/226/312
f 464/225/312 475/321/312 465/226/312
f 476/291/335 477/292/335 478/293/335
f 477/292/335 479/294/335 478/293/335
f 479/294/335 480/295/335 478/293/335
f 480/295/335 481/296/335 478/293/335
f 481/296/335 482/297/335 478/293/335
f 482/297/335 483/298/335 478/293/335
f 483/298/335 484/299/335 478/293/335
f 484/299/335 485/300/335 478/293/335
f 485/300/335 486/301/335 478/293/335
f 486/301/335 487/302/335 478/293/335
f 487/302/335 488/303/335 478/293/335
f 488/303/335 476/291/335 478/293/335
f 489/322/372 490/323/339 491/324/372
f 490/323/339 492/325/373 491/324/372
f 490/323/339 493/326/374 492/325/373
f 493/326/374 494/327/375 492/325/373
f 495/328/319 496/329/376 497/330/319
f 496/329/376 498/331/377 497/330/319
f 496/329/376 499/332/378 498/331/377
f 499/332/378 500/333/378 498/331/377
f 501/332/379 502/329/348 503/333/379
f 502/329/348 504/331/380 503/333/379
f 502/329/348 505/328/381 504/331/380
f 505/328/381 506/330/325 504/331/380
f 505/328/381 507/334/351 506/330/325
f 507/334/351 508/335/327 506/330/325
f 507/334/351 509/326/382 508/335/327
f 509/326/382 510/327/383 508/335/327
f 509/326/382 511/323/384 510/327/383
f 511/323/384 512/325/354 510/327/383
f 511/323/384 513/322/385 512/325/354
f 513/322/385 514/324/385 512/325/354
f 515/264/312 516/265/312 517/266/312
f 518/267/312 515/264/312 517/266/312
f 519/268/312 518/267/312 517/266/312
f 520/269/312 519/268/312 517/266/312
f 521/270/312 520/269/312 517/266/312
f 522/271/312 521/270/312 517/266/312
f 523/272/312 522/271/312 517/266/312
f 524/273/312 523/272/312 517/266/312
f 525/274/312 524/273/312 517/266/312
f 526/275/312 525/274/312 517/266/312
f 527/276/312 526/275/312 517/266/312
f 516/265/312 527/276/312 517/266/312
f 7/23/7 2/18/2 9/25/9
f 34/50/34 2/18/2 7/23/7
f 528/336/386 2/18/2 34/50/34
f 163/155/161 2/18/2 528/336/386
f 7/23/7 38/54/38 34/50/34
f 50/57/50 7/23/7 56/62/56
f 7/23/7 45/55/45 38/54/38
f 45/55/45 7/23/7 50/57/50
f 311/221/305 182/167/178 174/160/170
f 529/337/387 182/167/178 311/221/305
f 207/172/203 182/167/178 529/337/387
f 180/165/176 182/167/178 207/172/203
f 207/172/203 230/62/226 180/165/176
f 219/55/215 207/172/203 211/56/207
f 207/172/203 224/57/220 230/62/226
f 224/57/220 207/172/203 219/55/215
