# Blender 4.4.0
# www.blender.org
mtllib skybox.mtl
o Cube
v 3.000000 1.000000 -3.000000
v 3.000000 -1.000000 -3.000000
v 3.000000 1.000000 3.000000
v 3.000000 -1.000000 3.000000
v -3.000000 1.000000 -3.000000
v -3.000000 -1.000000 -3.000000
v -3.000000 1.000000 3.000000
v -3.000000 -1.000000 3.000000
vn -0.0000 -0.0000 -1.0000
vn 1.0000 -0.0000 -0.0000
vn -1.0000 -0.0000 -0.0000
vn -0.0000 -0.0000 1.0000
vt 1.000000 -0.000000
vt -0.000000 0.000000
vt 0.000000 1.000000
vt 1.000000 1.000000
s 0
usemtl Material
f 4/1/1 8/2/1 7/3/1 3/4/1
f 8/1/2 6/2/2 5/3/2 7/4/2
f 2/1/3 4/2/3 3/3/3 1/4/3
f 6/1/4 2/2/4 1/3/4 5/4/4
