# Blender 4.4.0
# www.blender.org
mtllib white_jeep.mtl
o JeepCPU01
v 0.065811 0.074258 -0.261307
v 0.000006 0.072753 -0.258553
v 0.000006 0.076561 -0.270477
v 0.000003 0.060761 -0.134186
v 0.065807 0.060599 -0.130997
v 0.099104 0.096272 -0.249161
v 0.099043 0.096519 -0.253326
v 0.095918 0.134881 -0.254280
v 0.093574 0.096643 -0.264900
v 0.092995 0.135753 -0.258797
v 0.050778 0.233327 0.215668
v 0.074672 0.223997 0.221207
v 0.072939 0.230669 0.216904
v 0.077117 0.227092 -0.073944
v 0.081286 0.222118 -0.074936
v 0.077312 0.221677 -0.079826
v 0.077117 0.227092 -0.073944
v 0.077312 0.221677 -0.079826
v 0.048547 0.228960 -0.076019
v 0.065798 0.072012 0.221672
v 0.097320 0.064362 0.223587
v 0.065798 0.064618 0.226212
v 0.101770 0.088082 0.207466
v 0.065798 0.091863 0.209625
v 0.100559 0.133602 0.238205
v 0.105261 0.114993 0.180534
v 0.105635 0.114965 0.138657
v 0.104369 0.106866 0.197517
v 0.103365 0.109638 -0.239395
v 0.105047 0.119474 -0.220474
v 0.099125 0.090319 -0.250908
v 0.094340 0.088610 -0.264107
v 0.091126 0.141946 -0.254387
v 0.093041 0.142159 -0.250534
v 0.056273 0.148600 -0.229362
v 0.091126 0.141946 -0.254387
v 0.052109 0.143152 -0.261520
v 0.093041 0.142159 -0.250534
v 0.094318 0.145576 -0.201447
v 0.065799 0.111625 0.199211
v 0.065798 0.091863 0.209625
v 0.065799 0.120642 0.181427
v 0.065798 0.072012 0.221672
v 0.065798 0.064618 0.226212
v 0.065801 0.060761 0.096161
v 0.065799 0.120642 0.181427
v 0.065801 0.060761 0.096161
v 0.065800 0.120611 0.137589
v 0.065799 0.120642 0.181427
v 0.065801 0.104772 0.114655
v 0.065808 0.106028 -0.156387
v 0.065811 0.074258 -0.261307
v 0.065808 0.114152 -0.163116
v 0.065808 0.106028 -0.156387
v 0.065809 0.122251 -0.181938
v 0.065810 0.122371 -0.221832
v 0.065811 0.074258 -0.261307
v 0.065811 0.111988 -0.241806
v 0.065810 0.122371 -0.221832
v 0.065811 0.097793 -0.250641
v 0.065811 0.091597 -0.253960
v 0.051661 0.234841 0.011971
v 0.050778 0.233327 0.215668
v 0.075383 0.231404 0.013092
v 0.072939 0.230669 0.216904
v 0.075291 0.231185 0.212875
v 0.098523 0.151294 -0.114006
v 0.096274 0.150810 -0.126236
v 0.105385 0.111688 -0.164848
v 0.105693 0.119361 -0.182686
v 0.097119 0.073893 -0.257881
v 0.095034 0.074258 -0.261307
v -0.065799 0.074258 -0.261307
v -0.097107 0.073893 -0.257881
v -0.095021 0.074258 -0.261307
v -0.105684 0.119361 -0.182686
v -0.105377 0.111688 -0.164848
v -0.098519 0.151294 -0.114021
v -0.095906 0.134881 -0.254288
v -0.099113 0.096190 -0.247772
v -0.103353 0.109638 -0.239395
v -0.094309 0.145576 -0.201462
v -0.093029 0.142159 -0.250542
v -0.075304 0.231185 0.212860
v -0.072951 0.230669 0.216904
v -0.075385 0.231404 0.013092
v -0.050791 0.233327 0.215668
v -0.051663 0.234841 0.011971
v -0.065802 0.060599 -0.130997
v -0.065799 0.091597 -0.253960
v -0.065799 0.074258 -0.261307
v -0.065802 0.060599 -0.130997
v -0.065799 0.097793 -0.250656
v -0.065799 0.091597 -0.253960
v -0.065802 0.060599 -0.130997
v -0.065799 0.111988 -0.241806
v -0.065799 0.097793 -0.250656
v -0.065800 0.122371 -0.221848
v -0.065801 0.122251 -0.181938
v -0.065802 0.060599 -0.130997
v -0.065801 0.114152 -0.163116
v -0.065801 0.122251 -0.181938
v -0.065801 0.106028 -0.156387
v -0.065811 0.064618 0.226204
v -0.065809 0.104772 0.114639
v -0.065808 0.060761 0.096146
v -0.065809 0.120611 0.137589
v -0.065811 0.064618 0.226204
v -0.065810 0.120642 0.181427
v -0.065809 0.120611 0.137589
v -0.065811 0.072012 0.221672
v -0.065811 0.091863 0.209625
v -0.065811 0.111625 0.199204
v -0.094309 0.145576 -0.201462
v -0.056263 0.148600 -0.229362
v -0.093029 0.142159 -0.250542
v -0.052097 0.143152 -0.261520
v -0.091114 0.141946 -0.254387
v -0.091114 0.141946 -0.254387
v -0.092982 0.135753 -0.258804
v -0.105037 0.119474 -0.220474
v -0.104380 0.106866 0.197502
v -0.100573 0.133602 0.238190
v -0.105272 0.114993 0.180527
v -0.105644 0.114965 0.138657
v -0.101783 0.088082 0.207466
v -0.097334 0.064362 0.223587
v -0.077309 0.221677 -0.079826
v -0.077115 0.227092 -0.073959
v -0.048544 0.228960 -0.076035
v -0.081284 0.222118 -0.074936
v -0.077115 0.227092 -0.073959
v -0.077309 0.221677 -0.079826
v -0.074685 0.223997 0.221207
v -0.050791 0.233327 0.215668
v -0.072951 0.230669 0.216904
v -0.093562 0.096643 -0.264900
v -0.065799 0.074258 -0.261307
v 0.094318 0.145576 -0.201447
v -0.096268 0.150810 -0.126251
v -0.000007 0.064391 0.223587
v -0.000007 0.065631 0.243904
v -0.091785 0.065328 0.242508
v 0.091770 0.065328 0.242523
v 0.098372 0.150960 0.008865
v 0.096518 0.151022 0.235947
v -0.000007 0.086483 0.246223
v 0.094826 0.088082 0.245926
v 0.094532 0.133230 0.244781
v -0.000007 0.134496 0.245499
v -0.000007 0.152450 0.242302
v 0.091350 0.151115 0.241165
v 0.101233 0.088082 0.238235
v 0.094532 0.133230 0.244781
v 0.094826 0.088082 0.245926
v 0.091350 0.151115 0.241165
v 0.075383 0.231404 0.013092
v 0.075291 0.231185 0.212875
v 0.079577 0.223530 0.216690
v 0.080848 0.223530 0.013962
v 0.077117 0.227092 -0.073944
v 0.048547 0.228960 -0.076019
v 0.000001 0.230776 -0.074799
v -0.000001 0.236964 0.011482
v 0.072939 0.230669 0.216904
v 0.074672 0.223997 0.221207
v 0.104768 0.100691 0.116745
v 0.065801 0.104772 0.114655
v 0.095337 0.060761 0.099075
v 0.105635 0.114965 0.138657
v 0.065800 0.120611 0.137589
v 0.105261 0.114993 0.180534
v 0.065799 0.120642 0.181427
v 0.104369 0.106866 0.197517
v 0.065799 0.111625 0.199211
v 0.101770 0.088082 0.207466
v 0.099104 0.096272 -0.249161
v 0.103365 0.109638 -0.239395
v 0.105047 0.119474 -0.220474
v 0.105693 0.119361 -0.182686
v 0.065809 0.122251 -0.181938
v 0.105385 0.111688 -0.164848
v 0.065808 0.114152 -0.163116
v 0.103479 0.103991 -0.158478
v 0.095361 0.060761 -0.134186
v 0.099125 0.090319 -0.250908
v 0.093574 0.096643 -0.264900
v 0.051422 0.096914 -0.272293
v 0.051632 0.136466 -0.267387
v 0.092995 0.135753 -0.258797
v 0.091126 0.141946 -0.254387
v 0.052109 0.143152 -0.261520
v 0.000007 0.088610 -0.272995
v 0.000007 0.097323 -0.272995
v 0.051422 0.088610 -0.272293
v 0.094340 0.088610 -0.264107
v 0.000006 0.137250 -0.268196
v 0.068920 0.156194 -0.127106
v 0.096274 0.150810 -0.126236
v 0.000006 0.149370 -0.236359
v 0.000003 0.159606 -0.127914
v 0.000006 0.143761 -0.262177
v 0.000006 0.143761 -0.262177
v -0.000006 0.235076 0.216324
v 0.000001 0.224956 -0.081345
v 0.000001 0.230776 -0.074799
v 0.103479 0.103991 -0.158478
v 0.104768 0.100691 0.116745
v 0.095337 0.060761 0.099075
v 0.095361 0.060761 -0.134186
v 0.095034 0.074258 -0.261307
v 0.097119 0.073893 -0.257881
v 0.050947 0.076106 -0.269135
v 0.095034 0.074258 -0.261307
v 0.000006 0.076561 -0.270477
v 0.065811 0.074258 -0.261307
v 0.096433 0.065291 0.237862
v 0.097320 0.064362 0.223587
v 0.091770 0.065328 0.242523
v 0.091770 0.065328 0.242523
v -0.000007 0.065631 0.243904
v -0.000003 0.060761 0.098282
v -0.065808 0.060761 0.096146
v -0.098374 0.150960 0.008865
v -0.103473 0.103991 -0.158478
v -0.104776 0.100691 0.116730
v -0.094841 0.088082 0.245918
v -0.091785 0.065328 0.242508
v -0.091785 0.065328 0.242508
v -0.094841 0.088082 0.245918
v -0.101247 0.088082 0.238228
v -0.096447 0.065291 0.237862
v -0.097334 0.064362 0.223587
v -0.101783 0.088082 0.207466
v -0.050934 0.076106 -0.269135
v -0.051410 0.088610 -0.272308
v -0.065799 0.074258 -0.261307
v -0.095021 0.074258 -0.261307
v -0.094327 0.088610 -0.264107
v -0.094327 0.088610 -0.264107
v -0.095021 0.074258 -0.261307
v -0.097107 0.073893 -0.257881
v -0.099113 0.090319 -0.250908
v -0.099113 0.090319 -0.250908
v -0.095356 0.060761 -0.134186
v -0.095344 0.060761 0.099068
v -0.080850 0.223530 0.013962
v -0.075385 0.231404 0.013092
v -0.052097 0.143152 -0.261520
v -0.051619 0.136466 -0.267387
v -0.068915 0.156194 -0.127106
v -0.096268 0.150810 -0.126251
v -0.051410 0.096914 -0.272308
v -0.093562 0.096643 -0.264900
v -0.092982 0.135753 -0.258804
v -0.091114 0.141946 -0.254387
v -0.099113 0.096190 -0.247772
v -0.103473 0.103991 -0.158478
v -0.095356 0.060761 -0.134186
v -0.105377 0.111688 -0.164848
v -0.105684 0.119361 -0.182686
v -0.105037 0.119474 -0.220474
v -0.065800 0.122371 -0.221848
v -0.103353 0.109638 -0.239395
v -0.065799 0.111988 -0.241806
v -0.104380 0.106866 0.197502
v -0.105272 0.114993 0.180527
v -0.105644 0.114965 0.138657
v -0.104776 0.100691 0.116730
v -0.065809 0.104772 0.114639
v -0.095344 0.060761 0.099068
v -0.079590 0.223530 0.216690
v -0.096532 0.151022 0.235947
v -0.091364 0.151115 0.241165
v -0.074685 0.223997 0.221207
v -0.072951 0.230669 0.216904
v -0.075304 0.231185 0.212860
v -0.048544 0.228960 -0.076035
v -0.077115 0.227092 -0.073959
v -0.094547 0.133230 0.244781
v -0.091364 0.151115 0.241165
v -0.094547 0.133230 0.244781
v -0.096447 0.065291 0.237862
v 0.096433 0.065291 0.237862
v 0.074672 0.223997 0.221207
v -0.000006 0.235076 0.216324
v 0.050778 0.233327 0.215668
v 0.000003 0.159606 -0.127914
v 0.068920 0.156194 -0.127106
v 0.096274 0.150810 -0.126236
v -0.096268 0.150810 -0.126251
v -0.068915 0.156194 -0.127106
v -0.050791 0.233327 0.215668
v -0.074685 0.223997 0.221207
v -0.112269 0.049701 -0.199165
v -0.112269 0.084082 -0.233551
v -0.112269 0.049701 -0.247787
v -0.112269 0.098324 -0.199165
v -0.112269 0.084082 -0.164787
v -0.112269 0.049701 -0.150543
v -0.112269 0.015319 -0.164787
v -0.112269 0.001078 -0.199165
v -0.112269 0.015319 -0.233551
v -0.112269 0.049701 -0.247787
v -0.075897 0.084082 -0.233551
v -0.075897 0.049701 -0.247787
v -0.112269 0.084082 -0.233551
v -0.075897 0.098324 -0.199165
v -0.112269 0.098324 -0.199165
v -0.075897 0.084082 -0.164787
v -0.112269 0.084082 -0.164787
v -0.075897 0.049701 -0.150543
v -0.112269 0.049701 -0.150543
v -0.075897 0.015319 -0.164787
v -0.112269 0.015319 -0.164787
v -0.075897 0.001078 -0.199165
v -0.112269 0.001078 -0.199165
v -0.075897 0.015319 -0.233551
v -0.112269 0.015319 -0.233551
v -0.075897 0.049701 -0.199165
v -0.075897 0.049701 -0.247787
v -0.075897 0.084082 -0.233551
v -0.075897 0.098324 -0.199165
v -0.075897 0.084082 -0.164787
v -0.075897 0.049701 -0.150543
v -0.075897 0.015319 -0.164787
v -0.075897 0.001078 -0.199165
v -0.075897 0.015319 -0.233551
v -0.112269 0.049701 0.160751
v -0.112269 0.084082 0.126373
v -0.112269 0.049701 0.112129
v -0.112269 0.098324 0.160751
v -0.112269 0.084082 0.195137
v -0.112269 0.049701 0.209366
v -0.112269 0.015319 0.195137
v -0.112269 0.001078 0.160751
v -0.112269 0.015319 0.126373
v -0.112269 0.049701 0.112129
v -0.075897 0.084082 0.126373
v -0.075897 0.049701 0.112129
v -0.112269 0.084082 0.126373
v -0.075897 0.098324 0.160751
v -0.112269 0.098324 0.160751
v -0.075897 0.084082 0.195137
v -0.112269 0.084082 0.195137
v -0.075897 0.049701 0.209366
v -0.112269 0.049701 0.209366
v -0.075897 0.015319 0.195137
v -0.112269 0.015319 0.195137
v -0.075897 0.001078 0.160751
v -0.112269 0.001078 0.160751
v -0.075897 0.015319 0.126373
v -0.112269 0.015319 0.126373
v -0.075897 0.049701 0.160751
v -0.075897 0.049701 0.112129
v -0.075897 0.084082 0.126373
v -0.075897 0.098324 0.160751
v -0.075897 0.084082 0.195137
v -0.075897 0.049701 0.209366
v -0.075897 0.015319 0.195137
v -0.075897 0.001078 0.160751
v -0.075897 0.015319 0.126373
v 0.112252 0.049701 0.160751
v 0.112252 0.049701 0.112129
v 0.112252 0.084082 0.126373
v 0.112252 0.098324 0.160751
v 0.112252 0.084082 0.195137
v 0.112252 0.049701 0.209366
v 0.112252 0.015319 0.195137
v 0.112252 0.001078 0.160751
v 0.112252 0.015319 0.126373
v 0.112252 0.049701 0.112129
v 0.075881 0.049701 0.112129
v 0.075881 0.084082 0.126373
v 0.112252 0.084082 0.126373
v 0.075881 0.098324 0.160751
v 0.112252 0.098324 0.160751
v 0.075881 0.084082 0.195137
v 0.112252 0.084082 0.195137
v 0.075881 0.049701 0.209366
v 0.112252 0.049701 0.209366
v 0.075881 0.015319 0.195137
v 0.112252 0.015319 0.195137
v 0.075881 0.001078 0.160751
v 0.112252 0.001078 0.160751
v 0.075881 0.015319 0.126373
v 0.112252 0.015319 0.126373
v 0.075881 0.049701 0.160751
v 0.075881 0.084082 0.126373
v 0.075881 0.049701 0.112129
v 0.075881 0.098324 0.160751
v 0.075881 0.084082 0.195137
v 0.075881 0.049701 0.209366
v 0.075881 0.015319 0.195137
v 0.075881 0.001078 0.160751
v 0.075881 0.015319 0.126373
v 0.112252 0.049701 -0.199165
v 0.112252 0.049701 -0.247787
v 0.112252 0.084082 -0.233551
v 0.112252 0.098324 -0.199165
v 0.112252 0.084082 -0.164787
v 0.112252 0.049701 -0.150543
v 0.112252 0.015319 -0.164787
v 0.112252 0.001078 -0.199165
v 0.112252 0.015319 -0.233551
v 0.112252 0.049701 -0.247787
v 0.075881 0.049701 -0.247787
v 0.075881 0.084082 -0.233551
v 0.112252 0.084082 -0.233551
v 0.075881 0.098324 -0.199165
v 0.112252 0.098324 -0.199165
v 0.075881 0.084082 -0.164787
v 0.112252 0.084082 -0.164787
v 0.075881 0.049701 -0.150543
v 0.112252 0.049701 -0.150543
v 0.075881 0.015319 -0.164787
v 0.112252 0.015319 -0.164787
v 0.075881 0.001078 -0.199165
v 0.112252 0.001078 -0.199165
v 0.075881 0.015319 -0.233551
v 0.112252 0.015319 -0.233551
v 0.075881 0.049701 -0.199165
v 0.075881 0.084082 -0.233551
v 0.075881 0.049701 -0.247787
v 0.075881 0.098324 -0.199165
v 0.075881 0.084082 -0.164787
v 0.075881 0.049701 -0.150543
v 0.075881 0.015319 -0.164787
v 0.075881 0.001078 -0.199165
v 0.075881 0.015319 -0.233551
vn 0.2388 -0.9639 -0.1180
vn -0.0000 -0.9802 -0.1982
vn -0.0000 -0.9526 -0.3042
vn -0.0000 -0.9986 -0.0523
vn 0.1426 -0.9566 -0.2541
vn 0.9932 0.0394 -0.1091
vn 0.9745 0.0183 -0.2235
vn 0.8971 0.2963 -0.3278
vn 0.9006 0.0551 -0.4312
vn 0.8266 0.2980 -0.4774
vn 0.0187 0.5453 0.8380
vn 0.7322 0.6526 -0.1949
vn 0.8299 0.5003 -0.2471
vn 0.6185 0.5583 -0.5530
vn 0.0968 0.7339 -0.6724
vn 0.0715 0.6421 -0.7632
vn 0.0439 0.6080 -0.7927
vn -0.0870 -0.5267 -0.8456
vn -0.0536 -0.8643 -0.5001
vn 0.1407 -0.9715 -0.1906
vn -0.0947 -0.4958 -0.8633
vn -0.1034 -0.4891 -0.8661
vn 0.9144 0.1400 0.3798
vn 0.9831 0.1816 0.0216
vn 0.9838 0.1794 0.0059
vn 0.9951 -0.0083 0.0987
vn 0.9453 0.0947 -0.3123
vn 0.9381 0.3345 -0.0897
vn 0.9596 -0.0479 -0.2771
vn 0.9293 -0.0118 -0.3690
vn 0.7606 0.5098 -0.4020
vn 0.8754 0.4442 -0.1906
vn 0.0670 0.9908 -0.1175
vn 0.0927 0.9867 -0.1333
vn 0.0344 0.9846 -0.1713
vn 0.1186 0.9884 -0.0947
vn 0.1469 0.9856 -0.0836
vn 1.0000 -0.0001 -0.0000
vn 1.0000 -0.0000 0.0001
vn 1.0000 -0.0000 -0.0000
vn 1.0000 0.0001 0.0001
vn 0.0793 -0.9625 0.2593
vn 0.4446 -0.5045 -0.7402
vn 0.0796 -0.4495 0.8897
vn 0.6223 -0.5774 0.5284
vn 0.0548 -0.9697 0.2382
vn 0.6777 -0.3683 0.6365
vn 0.6663 -0.3126 0.6770
vn 0.0896 0.9956 -0.0260
vn 0.0786 0.9969 0.0071
vn 0.1421 0.9897 -0.0186
vn 0.0342 0.9994 0.0040
vn -0.2127 0.9771 0.0010
vn 0.9628 0.2628 -0.0628
vn 0.5881 0.7957 -0.1450
vn 0.9991 0.0284 0.0322
vn 0.9766 0.2150 0.0020
vn -0.0799 -0.7250 0.6841
vn -0.0000 -0.9944 -0.1060
vn 0.0985 -0.4457 0.8898
vn 0.0835 -0.7228 0.6860
vn -0.9569 0.2892 -0.0263
vn -0.9990 0.0276 0.0338
vn -0.9575 0.2799 -0.0700
vn -0.8992 0.2921 -0.3259
vn -0.9377 0.0663 -0.3410
vn -0.9402 0.0823 -0.3306
vn -0.9196 0.3895 -0.0511
vn -0.8753 0.4443 -0.1909
vn 0.2126 0.9771 0.0010
vn -0.0344 0.9994 0.0040
vn -0.1350 0.9904 -0.0286
vn -0.0781 0.9969 0.0064
vn -0.0930 0.9952 -0.0316
vn -1.0000 -0.0000 -0.0000
vn -0.4248 -0.4500 0.7855
vn -0.3110 -0.4093 0.8578
vn -0.0108 -0.9661 -0.2579
vn -0.6296 -0.6220 -0.4656
vn -0.0805 -0.9759 -0.2027
vn -0.6598 -0.4245 -0.6201
vn -0.0592 -0.9795 -0.1925
vn -0.6039 -0.7755 -0.1841
vn -0.0561 -0.9552 0.2906
vn -0.6808 -0.3812 -0.6254
vn -0.6802 -0.3645 -0.6359
vn -0.5985 -0.5779 -0.5548
vn -0.1316 0.9887 -0.0722
vn -0.0744 0.9902 -0.1184
vn -0.0869 0.9907 -0.1043
vn -0.0462 0.9831 -0.1770
vn -0.0450 0.9960 -0.0776
vn -0.7602 0.5100 -0.4024
vn -0.8265 0.2981 -0.4775
vn -0.9083 0.4146 -0.0564
vn -0.9979 0.0021 0.0645
vn -0.9122 0.1494 0.3815
vn -0.9831 0.1816 0.0215
vn -0.9839 0.1786 0.0051
vn 0.1041 -0.4986 -0.8606
vn 0.0558 -0.8577 -0.5110
vn -0.0701 0.6423 -0.7633
vn -0.0968 0.7330 -0.6733
vn -0.0025 0.4695 -0.8829
vn -0.8310 0.4936 -0.2564
vn -0.7367 0.6493 -0.1888
vn -0.6542 0.5181 -0.5509
vn -0.0187 0.5453 0.8380
vn -0.9415 0.0580 -0.3321
vn -0.0132 -0.9925 -0.1215
vn 0.9195 0.3897 -0.0510
vn -0.5855 0.7990 -0.1373
vn 0.0001 -0.9990 0.0447
vn -0.0000 -0.9983 0.0588
vn -0.0100 -0.9985 0.0533
vn 0.0098 -0.9996 0.0280
vn 0.9772 0.2122 0.0016
vn 0.8835 0.2819 0.3742
vn 0.0029 -0.0493 0.9988
vn 0.0041 -0.0573 0.9984
vn 0.0090 0.1042 0.9945
vn -0.0003 0.0976 0.9952
vn -0.0022 0.2333 0.9724
vn 0.0155 0.2298 0.9731
vn 0.9351 -0.0891 0.3430
vn 0.7279 0.1286 0.6736
vn 0.7609 -0.0767 0.6444
vn 0.6811 0.2970 0.6692
vn 0.8210 0.5709 -0.0005
vn 0.8114 0.5512 0.1945
vn 0.8433 0.4162 0.3400
vn 0.9121 0.4099 0.0025
vn 0.0827 0.9944 -0.0652
vn 0.0532 0.9961 -0.0697
vn -0.0011 0.9975 -0.0703
vn -0.0007 0.9995 -0.0312
vn 0.6372 0.5772 0.5106
vn 0.6325 0.4353 0.6407
vn -0.1084 -0.6473 0.7544
vn -0.1127 -0.6359 0.7635
vn -0.0599 -0.7908 0.6091
vn -0.1369 -0.9476 0.2886
vn -0.1422 -0.9459 0.2918
vn -0.1428 -0.9651 -0.2196
vn -0.1402 -0.9640 -0.2261
vn -0.1214 -0.7124 -0.6912
vn -0.1202 -0.7135 -0.6903
vn 0.9948 -0.0779 0.0655
vn -0.0880 -0.4444 0.8915
vn -0.0888 -0.7641 0.6390
vn -0.0808 -0.9703 0.2281
vn -0.0749 -0.9764 -0.2025
vn -0.0747 -0.9763 -0.2033
vn -0.0757 -0.8035 -0.5905
vn -0.0775 -0.7976 -0.5982
vn -0.0742 -0.5622 -0.8237
vn -0.0511 -0.8296 -0.5561
vn -0.0987 -0.3284 0.9394
vn 0.1809 0.0251 -0.9832
vn 0.0966 0.0586 -0.9936
vn 0.0968 0.4021 -0.9105
vn 0.1943 0.3813 -0.9038
vn 0.1700 0.6103 -0.7737
vn 0.0915 0.6531 -0.7517
vn -0.0022 -0.1044 -0.9945
vn 0.0006 0.0604 -0.9982
vn 0.1025 -0.1222 -0.9872
vn 0.1708 -0.1356 -0.9759
vn 0.0016 0.4205 -0.9073
vn 0.1181 0.9895 -0.0831
vn 0.1948 0.9781 -0.0731
vn 0.0070 0.9884 -0.1517
vn 0.0040 0.9960 -0.0893
vn 0.0021 0.6778 -0.7353
vn 0.0085 0.9787 -0.2050
vn -0.0005 1.0000 0.0085
vn -0.0075 0.6653 -0.7466
vn -0.0153 0.7399 -0.6725
vn 0.9735 -0.2287 -0.0054
vn 0.9934 -0.1146 -0.0025
vn 0.9747 -0.2232 -0.0066
vn 0.9828 -0.1845 0.0001
vn 0.8974 0.0549 -0.4378
vn 0.8541 0.1114 -0.5080
vn 0.0602 -0.7024 -0.7092
vn 0.1557 -0.2863 -0.9454
vn -0.0044 -0.2696 -0.9630
vn -0.0000 -0.9699 -0.2436
vn 0.8998 -0.1958 0.3898
vn 0.9880 -0.1375 0.0703
vn 0.6924 -0.1968 0.6942
vn 0.0068 -0.1436 0.9896
vn 0.0040 -0.1135 0.9935
vn 0.0001 -0.9999 0.0149
vn 0.0245 -0.9654 0.2596
vn -0.9755 0.2200 0.0030
vn -0.9755 -0.2201 -0.0011
vn -0.9943 -0.1069 -0.0040
vn -0.0096 -0.0568 0.9983
vn -0.0145 -0.1501 0.9886
vn -0.7119 -0.1678 0.6819
vn -0.7633 -0.0911 0.6396
vn -0.9274 -0.1003 0.3604
vn -0.8874 -0.1936 0.4185
vn -0.9811 -0.1886 0.0434
vn -0.9896 -0.1425 0.0172
vn -0.0517 -0.6997 -0.7125
vn -0.0926 -0.1231 -0.9881
vn 0.0003 -0.9734 -0.2292
vn -0.1702 -0.2970 -0.9396
vn -0.1861 -0.1325 -0.9736
vn -0.9321 0.0363 -0.3603
vn -0.8496 -0.0611 -0.5239
vn -0.8946 -0.0198 -0.4464
vn -0.9410 0.1016 -0.3229
vn 0.1007 -0.4273 0.8985
vn -0.9815 -0.1915 -0.0064
vn -0.9732 -0.2299 0.0001
vn -0.9120 0.4102 -0.0007
vn -0.8218 0.5697 -0.0057
vn -0.0982 0.6512 -0.7525
vn -0.1047 0.3990 -0.9109
vn -0.1292 0.9876 -0.0893
vn -0.1808 0.9793 -0.0911
vn -0.0979 0.0646 -0.9931
vn -0.1802 0.0386 -0.9829
vn -0.1812 0.3764 -0.9086
vn -0.1613 0.6049 -0.7798
vn 0.0986 -0.4876 0.8675
vn 0.0787 -0.5627 -0.8229
vn 0.0561 -0.8268 -0.5597
vn 0.0774 -0.8038 -0.5898
vn 0.0747 -0.9765 -0.2020
vn 0.0793 -0.9703 0.2287
vn 0.0810 -0.9677 0.2387
vn 0.0913 -0.7453 0.6605
vn 0.0892 -0.7306 0.6769
vn 0.1206 -0.7155 -0.6881
vn 0.1402 -0.9648 -0.2224
vn 0.1424 -0.9481 0.2843
vn 0.1134 -0.6431 0.7573
vn 0.1076 -0.6330 0.7666
vn 0.0599 -0.7911 0.6088
vn -0.8349 0.4292 0.3447
vn -0.8834 0.2789 0.3766
vn -0.6843 0.2919 0.6683
vn -0.6420 0.4555 0.6167
vn -0.7201 0.4984 0.4827
vn -0.8136 0.5364 0.2242
vn -0.0582 0.9965 -0.0603
vn -0.0686 0.9965 -0.0480
vn -0.7273 0.1367 0.6726
vn -0.0129 0.2278 0.9736
vn -0.0090 0.1070 0.9942
vn -0.0604 -0.9958 0.0686
vn 0.0051 -0.9990 0.0443
vn 0.0032 0.3191 0.9477
vn -0.0182 0.3123 0.9498
vn 0.0301 0.5662 0.8237
vn 0.0006 0.5808 -0.8140
vn 0.0876 0.5757 -0.8129
vn 0.1376 0.5682 -0.8113
vn -0.1372 0.5682 -0.8114
vn -0.0879 0.5752 -0.8133
vn 0.0388 0.3344 0.9416
vn 0.0349 0.3160 0.9481
vn -0.0000 -0.0000 -1.0000
vn -0.0000 0.7071 -0.7071
vn -0.0000 1.0000 -0.0000
vn -0.0000 1.0000 0.0001
vn -0.0000 0.7071 0.7071
vn -0.0000 -0.0000 1.0000
vn -0.0000 -0.7071 0.7071
vn -0.0000 -1.0000 0.0001
vn -0.0000 -1.0000 -0.0000
vn -0.0000 -0.7071 -0.7071
vn -0.0000 1.0000 -0.0001
vn -0.0000 0.7070 0.7072
vn -0.0000 -0.7070 0.7072
vn -0.0000 -1.0000 -0.0001
vt 0.458856 0.037459
vt 0.459409 0.067595
vt 0.457023 0.067595
vt 0.484270 0.067597
vt 0.484906 0.037461
vt 0.031284 0.230176
vt 0.023137 0.230743
vt 0.021264 0.318836
vt 0.000509 0.231027
vt 0.012432 0.320838
vt 0.205734 0.629787
vt 0.236504 0.616361
vt 0.234272 0.625963
vt 0.373933 0.530585
vt 0.372017 0.519162
vt 0.362435 0.518149
vt 0.281223 0.987752
vt 0.281531 0.976178
vt 0.236074 0.991744
vt 0.555410 0.037465
vt 0.555792 0.023029
vt 0.556316 0.037465
vt 0.552569 0.020991
vt 0.553001 0.037465
vt 0.984385 0.315899
vt 0.871611 0.273166
vt 0.789716 0.273102
vt 0.904826 0.254504
vt 0.050379 0.260868
vt 0.087373 0.283456
vt 0.027863 0.216506
vt 0.002061 0.212580
vt 0.021060 0.335059
vt 0.028591 0.335548
vt 0.387911 0.653723
vt 0.353899 0.575895
vt 0.344204 0.663022
vt 0.359132 0.571618
vt 0.425840 0.568767
vt 0.550918 0.037465
vt 0.547364 0.037464
vt 0.530317 0.037463
vt 0.538601 0.037464
vt 0.534015 0.037464
vt 0.479831 0.037460
vt 0.478486 0.037460
vt 0.474724 0.037460
vt 0.466747 0.037460
vt 0.462756 0.037459
vt 0.460989 0.037459
vt 0.460326 0.037459
vt 0.715866 0.664023
vt 0.992696 0.665993
vt 0.717392 0.611049
vt 0.994372 0.616508
vt 0.988884 0.611255
vt 0.295586 0.356524
vt 0.271660 0.355414
vt 0.196166 0.265576
vt 0.161294 0.283195
vt 0.459543 0.023121
vt 0.458857 0.024076
vt 0.458856 0.097731
vt 0.459542 0.112069
vt 0.458856 0.111114
vt 0.161283 0.283196
vt 0.196155 0.265576
vt 0.295576 0.356525
vt 0.021254 0.318836
vt 0.033989 0.229987
vt 0.050368 0.260869
vt 0.124578 0.343394
vt 0.028581 0.335549
vt 0.988879 0.947541
vt 0.994367 0.942288
vt 0.717387 0.947723
vt 0.992693 0.892803
vt 0.715862 0.894749
vt 0.484906 0.097733
vt 0.460326 0.097731
vt 0.460988 0.097732
vt 0.462755 0.097732
vt 0.466747 0.097732
vt 0.474723 0.097732
vt 0.478486 0.097733
vt 0.479830 0.097733
vt 0.556315 0.097737
vt 0.534014 0.097736
vt 0.530317 0.097736
vt 0.538600 0.097736
vt 0.547363 0.097737
vt 0.555410 0.097737
vt 0.553000 0.097737
vt 0.550917 0.097737
vt 0.425833 0.989980
vt 0.387907 0.905021
vt 0.359126 0.987123
vt 0.344201 0.895718
vt 0.353893 0.982845
vt 0.021051 0.335059
vt 0.012422 0.320838
vt 0.087362 0.283456
vt 0.904815 0.254504
vt 0.984374 0.315899
vt 0.871600 0.273167
vt 0.789705 0.273102
vt 0.552568 0.114211
vt 0.555791 0.112173
vt 0.037182 0.976178
vt 0.037489 0.987752
vt 0.082639 0.991744
vt 0.372008 0.519162
vt 0.373925 0.530585
vt 0.362427 0.518149
vt 0.044161 0.616361
vt 0.074932 0.629787
vt 0.046394 0.625963
vt 0.000500 0.231027
vt 0.124588 0.343394
vt 0.271650 0.355414
vt 0.555792 0.067601
vt 0.559852 0.067601
vt 0.559575 0.109632
vt 0.559576 0.025571
vt 0.535904 0.355759
vt 0.979986 0.355900
vt 0.140332 0.418490
vt 0.262459 0.420790
vt 0.262081 0.485755
vt 0.140332 0.487577
vt 0.140332 0.513412
vt 0.257983 0.511490
vt 0.984458 0.211367
vt 0.997273 0.315043
vt 0.999501 0.211367
vt 0.990197 0.356114
vt 0.544154 0.540486
vt 0.934851 0.539984
vt 0.942343 0.522404
vt 0.545863 0.522405
vt 0.599108 0.607177
vt 0.596289 0.670976
vt 0.597946 0.779381
vt 0.715197 0.779386
vt 0.942749 0.538799
vt 0.951169 0.523476
vt 0.534432 0.019618
vt 0.530900 0.023937
vt 0.538813 0.019221
vt 0.547184 0.019393
vt 0.550580 0.019801
vt 0.924287 0.211367
vt 0.461286 0.022212
vt 0.463238 0.020261
vt 0.467019 0.019490
vt 0.474575 0.019195
vt 0.478140 0.019336
vt 0.479414 0.020208
vt 0.484271 0.023926
vt 0.460936 0.022202
vt 0.307230 0.708964
vt 0.240618 0.709545
vt 0.240948 0.794071
vt 0.306314 0.792548
vt 0.303361 0.805783
vt 0.241702 0.808360
vt 0.159364 0.691796
vt 0.159364 0.710419
vt 0.240618 0.691796
vt 0.308440 0.691796
vt 0.159364 0.795747
vt 0.526867 0.625481
vt 0.528039 0.564400
vt 0.378391 0.779371
vt 0.525781 0.779378
vt 0.159364 0.809663
vt 0.343320 0.779370
vt 0.993586 0.779398
vt 0.159356 0.983187
vt 0.159356 0.995624
vt 0.208625 0.247901
vt 0.746856 0.240323
vt 0.712305 0.148630
vt 0.256140 0.148630
vt 0.007518 0.179623
vt 0.014238 0.178786
vt 0.239867 0.665074
vt 0.309537 0.661124
vt 0.159364 0.666046
vt 0.263356 0.661124
vt 0.983737 0.159032
vt 0.955821 0.156899
vt 0.992839 0.159117
vt 0.258524 0.388049
vt 0.140332 0.388485
vt 0.530743 0.067600
vt 0.535894 0.355759
vt 0.208614 0.247901
vt 0.746846 0.240323
vt 0.018205 0.420790
vt 0.022140 0.388049
vt 0.992829 0.159117
vt 0.999491 0.211368
vt 0.984447 0.211368
vt 0.983727 0.159032
vt 0.955811 0.156899
vt 0.924277 0.211368
vt 0.078862 0.665074
vt 0.078111 0.691796
vt 0.055372 0.661125
vt 0.009191 0.661125
vt 0.010288 0.691796
vt 0.002051 0.212580
vt 0.007509 0.179623
vt 0.014228 0.178786
vt 0.027853 0.216507
vt 0.460935 0.112988
vt 0.256130 0.148631
vt 0.712295 0.148631
vt 0.545854 0.522405
vt 0.544146 0.540486
vt 0.077026 0.808360
vt 0.077780 0.794071
vt 0.526862 0.933274
vt 0.528032 0.994356
vt 0.078111 0.709545
vt 0.011498 0.708964
vt 0.012413 0.792548
vt 0.015366 0.805783
vt 0.461562 0.112988
vt 0.479413 0.114985
vt 0.484270 0.111267
vt 0.478139 0.115857
vt 0.474574 0.115998
vt 0.467018 0.115701
vt 0.463237 0.114930
vt 0.550579 0.115400
vt 0.547183 0.115809
vt 0.538812 0.115979
vt 0.534431 0.115581
vt 0.530899 0.111262
vt 0.942335 0.522404
vt 0.979976 0.355900
vt 0.990188 0.356114
vt 0.951162 0.523476
vt 0.942741 0.538799
vt 0.934843 0.539984
vt 0.596286 0.887786
vt 0.599102 0.951585
vt 0.997263 0.315043
vt 0.022681 0.511490
vt 0.018583 0.485755
vt 0.558645 0.111767
vt 0.558646 0.023435
vt 0.140333 0.632303
vt 0.159358 0.843525
vt 0.268270 0.836232
vt 0.311496 0.824726
vt 0.007220 0.824726
vt 0.050447 0.836232
vt 0.129049 0.123232
vt 0.061810 0.202184
vt 0.033959 0.123232
vt 0.129049 0.234887
vt 0.196288 0.202184
vt 0.224139 0.123232
vt 0.196288 0.044280
vt 0.129049 0.011577
vt 0.061810 0.044280
vt 0.218711 0.139402
vt 0.192656 0.233795
vt 0.129752 0.272894
vt 0.066848 0.233795
vt 0.040793 0.139402
vt 0.066848 0.045009
vt 0.129752 0.005910
vt 0.192656 0.045009
vt 0.832929 0.123232
vt 0.765690 0.202184
vt 0.737838 0.123232
vt 0.832929 0.234887
vt 0.900167 0.202184
vt 0.928018 0.123232
vt 0.900167 0.044280
vt 0.832929 0.011577
vt 0.765690 0.044280
vt 0.737839 0.123232
vt 0.928019 0.123232
s 1
usemtl JeepCPU
f 1/1/1 2/2/2 3/3/3
f 1/1/1 4/4/4 2/2/2
f 4/4/4 1/1/1 5/5/5
f 6/6/6 7/7/7 8/8/8
f 9/9/9 8/8/8 7/7/7
f 10/10/10 8/8/8 9/9/9
s 0
f 11/11/11 12/12/11 13/13/11
s 1
f 14/14/12 15/15/13 16/16/14
f 17/17/15 18/18/16 19/19/17
f 20/20/18 21/21/19 22/22/20
f 21/21/19 20/20/18 23/23/21
f 20/20/18 24/24/22 23/23/21
f 25/25/23 26/26/24 27/27/25
f 25/25/23 28/28/26 26/26/24
f 29/29/27 8/8/8 30/30/28
f 6/6/6 31/31/29 7/7/7
f 32/32/30 7/7/7 31/31/29
f 9/9/9 7/7/7 32/32/30
f 10/10/10 33/33/31 8/8/8
f 34/34/32 8/8/8 33/33/31
f 35/35/33 36/36/34 37/37/35
f 35/35/33 38/38/36 36/36/34
f 38/38/36 35/35/33 39/39/37
f 40/40/38 41/24/39 42/41/40
f 41/24/39 43/20/41 42/41/40
f 43/20/41 44/22/41 42/41/40
f 45/42/42 46/41/40 22/22/20
f 47/42/40 48/43/40 49/41/40
f 47/42/40 50/44/39 48/43/40
f 1/1/1 51/45/43 5/5/5
f 52/1/40 53/46/40 54/45/40
f 52/1/40 55/47/40 53/46/40
f 52/1/40 56/48/40 55/47/40
f 57/1/44 58/49/45 59/48/46
f 57/1/44 60/50/47 58/49/45
f 57/1/44 61/51/48 60/50/47
f 62/52/49 63/53/50 64/54/51
f 65/55/52 64/54/51 63/53/50
f 66/56/53 64/54/51 65/55/52
f 67/57/54 8/8/8 68/58/55
f 6/6/6 8/8/8 29/29/27
f 69/59/56 70/60/57 67/57/54
f 71/61/58 57/1/44 72/62/59
f 73/63/60 74/64/61 75/65/59
f 76/66/62 77/67/63 78/68/64
f 79/69/65 80/70/66 81/71/67
f 79/69/65 82/72/68 83/73/69
f 84/74/70 85/75/71 86/76/72
f 87/77/73 86/76/72 85/75/71
f 86/76/72 87/77/73 88/78/74
f 89/79/75 90/80/75 91/63/75
f 92/79/75 93/81/76 94/80/77
f 95/79/75 96/82/75 97/81/75
f 95/79/75 98/83/75 96/82/75
f 95/79/75 99/84/75 98/83/75
f 100/79/78 101/85/79 102/84/80
f 100/79/78 103/86/81 101/85/79
f 104/87/75 105/88/75 106/89/75
f 104/87/75 107/90/75 105/88/75
f 108/87/82 109/91/83 110/90/84
f 111/92/85 109/91/83 108/87/82
f 112/93/86 109/91/83 111/92/85
f 113/94/87 109/91/83 112/93/86
f 114/95/88 115/96/89 116/97/90
f 117/98/91 116/97/90 115/96/89
f 117/98/91 118/99/92 116/97/90
f 119/100/93 79/69/65 83/73/69
f 120/101/94 79/69/65 119/100/93
f 79/69/65 81/71/67 121/102/95
f 122/103/96 123/104/97 124/105/98
f 124/105/98 123/104/97 125/106/99
f 126/107/100 112/93/86 127/108/101
f 112/93/86 111/92/85 127/108/101
f 108/87/82 127/108/101 111/92/85
f 128/109/102 129/110/103 130/111/104
f 131/112/105 132/113/106 133/114/107
s 0
f 134/115/108 135/116/108 136/117/108
s 1
f 120/101/94 137/118/109 79/69/65
f 80/70/66 79/69/65 137/118/109
f 100/79/78 138/63/110 4/4/4
f 4/4/4 138/63/110 2/2/2
f 3/3/3 2/2/2 138/63/110
f 8/8/8 34/34/32 139/119/111
f 8/8/8 139/119/111 68/58/55
f 79/69/65 78/68/64 140/120/112
f 79/69/65 140/120/112 82/72/68
f 141/121/113 142/122/114 108/87/82
f 142/122/114 143/123/115 108/87/82
f 22/22/20 144/124/116 142/122/114
f 30/30/28 8/8/8 67/57/54
f 67/57/54 70/60/57 30/30/28
f 27/27/25 145/125/117 146/126/118
f 146/126/118 25/25/23 27/27/25
f 147/127/119 148/128/120 149/129/121
f 149/129/121 150/130/122 147/127/119
f 151/131/123 150/130/122 149/129/121
f 149/129/121 152/132/124 151/131/123
f 153/133/125 25/25/23 154/134/126
f 154/134/126 155/135/127 153/133/125
f 154/134/126 25/25/23 146/126/118
f 146/126/118 156/136/128 154/134/126
f 157/137/129 158/138/130 159/139/131
f 159/139/131 160/140/132 157/137/129
f 161/141/133 162/142/134 62/52/49
f 62/52/49 64/54/51 161/141/133
f 162/142/134 163/143/135 164/144/136
f 164/144/136 62/52/49 162/142/134
f 15/15/13 67/57/54 68/58/55
f 68/58/55 16/16/14 15/15/13
f 165/145/137 166/146/138 159/139/131
f 159/139/131 158/138/130 165/145/137
f 146/126/118 159/139/131 166/146/138
f 166/146/138 156/136/128 146/126/118
f 167/147/139 168/44/140 45/42/42
f 45/42/42 169/148/141 167/147/139
f 168/44/140 167/147/139 170/149/142
f 170/149/142 171/43/143 168/44/140
f 171/43/143 170/149/142 172/150/144
f 172/150/144 173/41/145 171/43/143
f 173/41/145 172/150/144 174/151/146
f 174/151/146 175/40/147 173/41/145
f 175/40/147 174/151/146 23/23/21
f 23/23/21 24/24/22 175/40/147
f 25/25/23 153/133/125 176/152/148
f 176/152/148 28/28/26 25/25/23
f 177/153/149 178/154/150 58/49/45
f 58/49/45 60/50/47 177/153/149
f 58/49/45 178/154/150 179/155/151
f 179/155/151 59/48/46 58/49/45
f 59/48/46 179/155/151 180/156/152
f 180/156/152 181/47/153 59/48/46
f 181/47/153 180/156/152 182/157/154
f 182/157/154 183/46/155 181/47/153
f 183/46/155 182/157/154 184/158/156
f 184/158/156 51/45/43 183/46/155
f 51/45/43 184/158/156 185/159/157
f 185/159/157 5/5/5 51/45/43
f 61/51/48 186/160/158 177/153/149
f 177/153/149 60/50/47 61/51/48
f 187/161/159 188/162/160 189/163/161
f 189/163/161 190/164/162 187/161/159
f 191/165/163 190/164/162 189/163/161
f 189/163/161 192/166/164 191/165/163
f 193/167/165 194/168/166 188/162/160
f 188/162/160 195/169/167 193/167/165
f 196/170/168 195/169/167 188/162/160
f 188/162/160 187/161/159 196/170/168
f 189/163/161 188/162/160 194/168/166
f 194/168/166 197/171/169 189/163/161
f 198/172/170 199/173/171 39/39/37
f 39/39/37 35/35/33 198/172/170
f 200/174/172 201/175/173 198/172/170
f 198/172/170 35/35/33 200/174/172
f 202/176/174 192/166/164 189/163/161
f 189/163/161 197/171/169 202/176/174
f 203/177/175 200/174/172 35/35/33
f 35/35/33 37/37/35 203/177/175
f 63/53/50 62/52/49 164/144/136
f 164/144/136 204/178/176 63/53/50
f 15/15/13 14/14/12 157/137/129
f 157/137/129 160/140/132 15/15/13
f 19/19/17 18/18/16 205/179/177
f 205/179/177 206/180/178 19/19/17
f 207/181/179 208/182/180 209/183/181
f 209/183/181 210/184/182 207/181/179
f 71/61/58 186/160/158 61/51/48
f 61/51/48 57/1/44 71/61/58
f 211/185/183 32/32/30 31/31/29
f 31/31/29 212/186/184 211/185/183
f 213/187/185 195/169/167 196/170/168
f 196/170/168 214/188/186 213/187/185
f 215/189/187 213/187/185 214/188/186
f 214/188/186 216/190/188 215/189/187
f 195/169/167 213/187/185 215/189/187
f 215/189/187 193/167/165 195/169/167
f 217/191/189 218/192/190 176/152/148
f 176/152/148 153/133/125 217/191/189
f 155/135/127 219/193/191 217/191/189
f 217/191/189 153/133/125 155/135/127
f 220/194/192 148/128/120 147/127/119
f 147/127/119 221/195/193 220/194/192
f 222/196/194 45/42/42 22/22/20
f 22/22/20 141/121/113 222/196/194
f 4/4/4 222/196/194 223/89/195
f 223/89/195 100/79/78 4/4/4
f 69/59/56 27/27/25 208/182/180
f 208/182/180 207/181/179 69/59/56
f 69/59/56 67/57/54 145/125/117
f 145/125/117 27/27/25 69/59/56
f 78/68/64 77/67/63 125/106/99
f 125/106/99 224/197/196 78/68/64
f 125/106/99 77/67/63 225/198/197
f 225/198/197 226/199/198 125/106/99
f 223/89/195 222/196/194 141/121/113
f 141/121/113 108/87/82 223/89/195
f 227/200/199 228/201/200 221/195/193
f 221/195/193 147/127/119 227/200/199
f 229/202/201 230/203/202 231/204/203
f 231/204/203 232/205/204 229/202/201
f 233/206/205 232/205/204 231/204/203
f 231/204/203 234/207/206 233/206/205
f 235/208/207 236/209/208 193/167/165
f 193/167/165 215/189/187 235/208/207
f 235/208/207 215/189/187 237/210/209
f 237/210/209 238/211/210 235/208/207
f 236/209/208 235/208/207 238/211/210
f 238/211/210 239/212/211 236/209/208
f 240/213/212 241/214/213 242/215/214
f 242/215/214 243/216/215 240/213/212
f 244/217/216 74/64/61 73/63/60
f 73/63/60 94/80/77 244/217/216
f 226/199/198 225/198/197 245/218/217
f 245/218/217 246/219/218 226/199/198
f 128/109/102 130/111/104 206/180/178
f 206/180/178 205/179/177 128/109/102
f 132/113/106 131/112/105 247/220/219
f 247/220/219 248/221/220 132/113/106
f 88/78/74 87/77/73 204/178/176
f 204/178/176 164/144/136 88/78/74
f 200/174/172 203/177/175 117/98/91
f 117/98/91 115/96/89 200/174/172
f 249/222/221 202/176/174 197/171/169
f 197/171/169 250/223/222 249/222/221
f 201/175/173 200/174/172 115/96/89
f 115/96/89 251/224/223 201/175/173
f 252/225/224 251/224/223 115/96/89
f 115/96/89 114/95/88 252/225/224
f 253/226/225 250/223/222 197/171/169
f 197/171/169 194/168/166 253/226/225
f 236/209/208 239/212/211 254/227/226
f 254/227/226 253/226/225 236/209/208
f 194/168/166 193/167/165 236/209/208
f 236/209/208 253/226/225 194/168/166
f 255/228/227 256/229/228 249/222/221
f 249/222/221 250/223/222 255/228/227
f 253/226/225 254/227/226 255/228/227
f 255/228/227 250/223/222 253/226/225
f 137/118/109 240/213/212 243/216/215
f 243/216/215 80/70/66 137/118/109
f 244/217/216 94/80/77 93/81/76
f 93/81/76 257/230/229 244/217/216
f 258/231/230 103/86/81 100/79/78
f 100/79/78 259/232/231 258/231/230
f 260/233/232 101/85/79 103/86/81
f 103/86/81 258/231/230 260/233/232
f 261/234/233 102/84/80 101/85/79
f 101/85/79 260/233/232 261/234/233
f 262/235/234 263/83/235 102/84/80
f 102/84/80 261/234/233 262/235/234
f 264/236/236 265/82/237 263/83/235
f 263/83/235 262/235/234 264/236/236
f 264/236/236 257/230/229 93/81/76
f 93/81/76 265/82/237 264/236/236
f 231/204/203 123/104/97 122/103/96
f 122/103/96 234/207/206 231/204/203
f 266/237/238 113/94/87 112/93/86
f 112/93/86 126/107/100 266/237/238
f 267/238/239 109/91/83 113/94/87
f 113/94/87 266/237/238 267/238/239
f 268/239/240 110/90/84 109/91/83
f 109/91/83 267/238/239 268/239/240
f 269/240/241 270/88/242 110/90/84
f 110/90/84 268/239/240 269/240/241
f 270/88/242 269/240/241 271/241/243
f 271/241/243 223/89/195 270/88/242
f 272/242/244 273/243/245 274/244/246
f 274/244/246 275/245/247 272/242/244
f 275/245/247 276/246/248 277/247/249
f 277/247/249 272/242/244 275/245/247
f 78/68/64 131/112/105 133/114/107
f 133/114/107 140/120/112 78/68/64
f 163/143/135 278/248/250 88/78/74
f 88/78/74 164/144/136 163/143/135
f 278/248/250 279/249/251 86/76/72
f 86/76/72 88/78/74 278/248/250
f 277/247/249 248/221/220 247/220/219
f 247/220/219 272/242/244 277/247/249
f 123/104/97 280/250/252 274/244/246
f 274/244/246 273/243/245 123/104/97
f 123/104/97 231/204/203 230/203/202
f 230/203/202 280/250/252 123/104/97
f 150/130/122 151/131/123 281/251/253
f 281/251/253 282/252/254 150/130/122
f 227/200/199 147/127/119 150/130/122
f 150/130/122 282/252/254 227/200/199
f 224/197/196 125/106/99 123/104/97
f 123/104/97 273/243/245 224/197/196
f 79/69/65 121/102/95 76/66/62
f 76/66/62 78/68/64 79/69/65
f 223/89/195 271/241/243 259/232/231
f 259/232/231 100/79/78 223/89/195
f 4/4/4 5/5/5 45/42/42
f 45/42/42 222/196/194 4/4/4
f 5/5/5 185/159/157 169/148/141
f 169/148/141 45/42/42 5/5/5
f 143/123/115 283/253/255 127/108/101
f 127/108/101 108/87/82 143/123/115
f 142/122/114 141/121/113 22/22/20
f 22/22/20 21/21/19 284/254/256
f 284/254/256 144/124/116 22/22/20
f 285/12/257 151/131/123 152/132/124
f 151/131/123 285/12/257 286/255/258
f 285/12/257 287/11/259 286/255/258
f 18/18/16 288/256/260 205/179/177
f 18/18/16 289/257/261 288/256/260
f 290/258/262 289/257/261 18/18/16
f 291/259/263 128/109/102 292/260/264
f 205/179/177 292/260/264 128/109/102
f 205/179/177 288/256/260 292/260/264
f 286/255/258 293/116/265 151/131/123
f 293/116/265 294/115/266 151/131/123
f 281/251/253 151/131/123 294/115/266
f 160/140/132 159/139/131 146/126/118
f 146/126/118 145/125/117 160/140/132
f 67/57/54 15/15/13 160/140/132
f 160/140/132 145/125/117 67/57/54
f 131/112/105 78/68/64 224/197/196
f 224/197/196 247/220/219 131/112/105
f 272/242/244 247/220/219 224/197/196
f 224/197/196 273/243/245 272/242/244
f 295/261/75 296/262/75 297/263/75
f 295/261/75 298/264/75 296/262/75
f 295/261/75 299/265/75 298/264/75
f 295/261/75 300/266/75 299/265/75
f 295/261/75 301/267/75 300/266/75
f 295/261/75 302/268/75 301/267/75
f 295/261/75 303/269/75 302/268/75
f 295/261/75 297/263/75 303/269/75
f 304/270/267 305/271/268 306/270/267
f 304/270/267 307/271/268 305/271/268
f 307/271/268 308/272/269 305/271/268
f 307/271/268 309/272/270 308/272/269
f 309/272/270 310/273/271 308/272/269
f 309/272/270 311/273/271 310/273/271
f 311/273/271 312/274/272 310/273/271
f 311/273/271 313/274/272 312/274/272
f 313/274/272 314/275/273 312/274/272
f 313/274/272 315/275/273 314/275/273
f 315/275/273 316/276/274 314/275/273
f 315/275/273 317/276/275 316/276/274
f 317/276/275 318/277/276 316/276/274
f 317/276/275 319/277/276 318/277/276
f 319/277/276 306/270/267 318/277/276
f 319/277/276 304/270/267 306/270/267
f 320/261/40 321/263/40 322/262/40
f 320/261/40 322/262/40 323/264/40
f 320/261/40 323/264/40 324/265/40
f 320/261/40 324/265/40 325/266/40
f 320/261/40 325/266/40 326/267/40
f 320/261/40 326/267/40 327/268/40
f 320/261/40 327/268/40 328/269/40
f 320/261/40 328/269/40 321/263/40
f 329/278/75 330/279/75 331/280/75
f 329/278/75 332/281/75 330/279/75
f 329/278/75 333/282/75 332/281/75
f 329/278/75 334/283/75 333/282/75
f 329/278/75 335/284/75 334/283/75
f 329/278/75 336/285/75 335/284/75
f 329/278/75 337/286/75 336/285/75
f 329/278/75 331/280/75 337/286/75
f 338/270/267 339/271/268 340/270/267
f 338/270/267 341/271/268 339/271/268
f 341/271/268 342/272/277 339/271/268
f 341/271/268 343/272/269 342/272/277
f 343/272/269 344/273/278 342/272/277
f 343/272/269 345/273/278 344/273/278
f 345/273/278 346/274/272 344/273/278
f 345/273/278 347/274/272 346/274/272
f 347/274/272 348/275/279 346/274/272
f 347/274/272 349/275/279 348/275/279
f 349/275/279 350/276/275 348/275/279
f 349/275/279 351/276/280 350/276/275
f 351/276/280 352/277/276 350/276/275
f 351/276/280 353/277/276 352/277/276
f 353/277/276 340/270/267 352/277/276
f 353/277/276 338/270/267 340/270/267
f 354/278/40 355/287/40 356/279/40
f 354/278/40 356/279/40 357/281/40
f 354/278/40 357/281/40 358/282/40
f 354/278/40 358/282/40 359/288/40
f 354/278/40 359/288/40 360/284/40
f 354/278/40 360/284/40 361/285/40
f 354/278/40 361/285/40 362/286/40
f 354/278/40 362/286/40 355/287/40
f 363/278/40 364/287/40 365/279/40
f 363/278/40 365/279/40 366/281/40
f 363/278/40 366/281/40 367/282/40
f 363/278/40 367/282/40 368/288/40
f 363/278/40 368/288/40 369/284/40
f 363/278/40 369/284/40 370/285/40
f 363/278/40 370/285/40 371/286/40
f 363/278/40 371/286/40 364/287/40
f 372/270/267 373/270/267 374/271/268
f 372/270/267 374/271/268 375/271/268
f 375/271/268 374/271/268 376/272/277
f 375/271/268 376/272/277 377/272/269
f 377/272/269 376/272/277 378/273/278
f 377/272/269 378/273/278 379/273/278
f 379/273/278 378/273/278 380/274/272
f 379/273/278 380/274/272 381/274/272
f 381/274/272 380/274/272 382/275/279
f 381/274/272 382/275/279 383/275/279
f 383/275/279 382/275/279 384/276/275
f 383/275/279 384/276/275 385/276/280
f 385/276/280 384/276/275 386/277/276
f 385/276/280 386/277/276 387/277/276
f 387/277/276 386/277/276 373/270/267
f 387/277/276 373/270/267 372/270/267
f 388/278/75 389/279/75 390/287/75
f 388/278/75 391/281/75 389/279/75
f 388/278/75 392/282/75 391/281/75
f 388/278/75 393/288/75 392/282/75
f 388/278/75 394/284/75 393/288/75
f 388/278/75 395/285/75 394/284/75
f 388/278/75 396/286/75 395/285/75
f 388/278/75 390/287/75 396/286/75
f 397/261/40 398/263/40 399/262/40
f 397/261/40 399/262/40 400/264/40
f 397/261/40 400/264/40 401/265/40
f 397/261/40 401/265/40 402/266/40
f 397/261/40 402/266/40 403/267/40
f 397/261/40 403/267/40 404/268/40
f 397/261/40 404/268/40 405/269/40
f 397/261/40 405/269/40 398/263/40
f 406/270/267 407/270/267 408/271/268
f 406/270/267 408/271/268 409/271/268
f 409/271/268 408/271/268 410/272/269
f 409/271/268 410/272/269 411/272/270
f 411/272/270 410/272/269 412/273/271
f 411/272/270 412/273/271 413/273/271
f 413/273/271 412/273/271 414/274/272
f 413/273/271 414/274/272 415/274/272
f 415/274/272 414/274/272 416/275/273
f 415/274/272 416/275/273 417/275/273
f 417/275/273 416/275/273 418/276/274
f 417/275/273 418/276/274 419/276/275
f 419/276/275 418/276/274 420/277/276
f 419/276/275 420/277/276 421/277/276
f 421/277/276 420/277/276 407/270/267
f 421/277/276 407/270/267 406/270/267
f 422/261/75 423/262/75 424/263/75
f 422/261/75 425/264/75 423/262/75
f 422/261/75 426/265/75 425/264/75
f 422/261/75 427/266/75 426/265/75
f 422/261/75 428/267/75 427/266/75
f 422/261/75 429/268/75 428/267/75
f 422/261/75 430/269/75 429/268/75
f 422/261/75 424/263/75 430/269/75
